<svg width="33" height="48" viewBox="0 0 33 48" fill="none" xmlns="http://www.w3.org/2000/svg">
<path d="M15.8916 1.86332C16.2882 1.27775 17.1508 1.27775 17.5475 1.86332L32.1626 23.4394C32.392 23.778 32.392 24.2223 32.1626 24.561L17.5475 46.137C17.1508 46.7226 16.2882 46.7226 15.8916 46.137L1.27649 24.561C1.04707 24.2223 1.04708 23.778 1.2765 23.4394L15.8916 1.86332Z" fill="#7B33D1" fill-opacity="0.49"/>
<path d="M16.7192 4.53458L3.6886 24.0005H11.1347L16.7192 15.2408V4.53458Z" fill="url(#paint0_linear_1_13368)"/>
<path d="M29.7499 24.0005L16.7192 4.53458V15.2408L22.3038 24.0005H29.7499Z" fill="url(#paint1_linear_1_13368)"/>
<path d="M16.7192 43.4665L29.7499 24.0005H22.3038L16.7192 32.7602V43.4665Z" fill="url(#paint2_linear_1_13368)"/>
<path d="M3.6886 24.0005L16.7192 43.4665V32.7602L11.1347 24.0005H3.6886Z" fill="url(#paint3_linear_1_13368)"/>
<path d="M22.3038 24.0005L16.7192 15.2408L11.1347 24.0005L16.7192 32.7602L22.3038 24.0005Z" fill="white"/>
<defs>
<linearGradient id="paint0_linear_1_13368" x1="8.22193" y1="16.8764" x2="13.032" y2="20.3695" gradientUnits="userSpaceOnUse">
<stop stop-color="#FFD2F6"/>
<stop offset="1" stop-color="#FFEEFC"/>
</linearGradient>
<linearGradient id="paint1_linear_1_13368" x1="19.4469" y1="17.7619" x2="27.4346" y2="14.5168" gradientUnits="userSpaceOnUse">
<stop stop-color="#FFC2F1"/>
<stop offset="1" stop-color="#FFCDF4"/>
</linearGradient>
<linearGradient id="paint2_linear_1_13368" x1="18.5114" y1="28.3886" x2="22.2518" y2="34.7709" gradientUnits="userSpaceOnUse">
<stop stop-color="#FF88EF"/>
<stop offset="1" stop-color="#E962D6"/>
</linearGradient>
<linearGradient id="paint3_linear_1_13368" x1="13.5226" y1="26.6174" x2="13.8021" y2="37.2449" gradientUnits="userSpaceOnUse">
<stop stop-color="#FFCDF4"/>
<stop offset="1" stop-color="#FF97E8"/>
</linearGradient>
</defs>
</svg>
