<svg width="223" height="67" viewBox="0 0 223 67" fill="none" xmlns="http://www.w3.org/2000/svg">
<g filter="url(#filter0_f_1_22)">
<path d="M84.1313 50.5422C93.4714 50.5422 101.043 43.0574 101.043 33.8245C101.043 24.5917 93.4714 17.1069 84.1313 17.1069C74.7912 17.1069 67.2196 24.5917 67.2196 33.8245C67.2196 43.0574 74.7912 50.5422 84.1313 50.5422Z" fill="#41BEF1" fill-opacity="0.45"/>
</g>
<path d="M83.0344 51.2014C92.9546 51.2014 100.996 43.2518 100.996 33.4454C100.996 23.6391 92.9546 15.6895 83.0344 15.6895C73.1143 15.6895 65.0724 23.6391 65.0724 33.4454C65.0724 43.2518 73.1143 51.2014 83.0344 51.2014Z" fill="url(#paint0_linear_1_22)"/>
<g filter="url(#filter1_f_1_22)">
<path d="M97.062 33.4454C97.062 41.0977 90.7854 47.308 83.0344 47.308C75.2835 47.308 69.0069 41.0977 69.0069 33.4454C69.0069 25.793 75.2835 19.5827 83.0344 19.5827C90.7854 19.5827 97.062 25.793 97.062 33.4454Z" stroke="url(#paint1_linear_1_22)" stroke-width="0.689415"/>
</g>
<g filter="url(#filter2_f_1_22)">
<path d="M97.062 33.4454C97.062 41.0977 90.7854 47.308 83.0344 47.308C75.2835 47.308 69.0069 41.0977 69.0069 33.4454C69.0069 25.793 75.2835 19.5827 83.0344 19.5827C90.7854 19.5827 97.062 25.793 97.062 33.4454Z" stroke="url(#paint2_linear_1_22)" stroke-width="0.689415"/>
</g>
<g filter="url(#filter3_d_1_22)">
<path d="M92.1308 29.1715C91.554 29.3996 90.9407 29.5617 90.297 29.6337C90.9771 29.2376 91.5054 28.6253 91.7847 27.893C91.8029 27.8449 91.7483 27.8029 91.7058 27.8269C91.0621 28.1811 90.3638 28.4392 89.6169 28.5833C88.9793 27.923 88.0745 27.5088 87.0726 27.5088C85.1476 27.5088 83.587 29.0275 83.587 30.9003C83.587 31.1644 83.6174 31.4225 83.6781 31.6747C80.7877 31.5306 78.2252 30.192 76.5067 28.1511C76.5006 28.1391 76.4824 28.1451 76.4763 28.1511C76.1848 28.6493 76.0209 29.2196 76.0209 29.8318C76.0209 30.9843 76.6099 31.9988 77.5147 32.6171C77.5329 32.6291 77.5208 32.6591 77.5025 32.6531C76.9682 32.6231 76.4702 32.479 76.027 32.2449C76.0148 32.2389 75.9966 32.2449 76.0027 32.2629C76.0087 32.413 76.0634 33.0793 76.2395 33.5055C76.6767 34.562 77.624 35.3723 78.802 35.6064C78.5106 35.6845 78.2009 35.7265 77.879 35.7265C77.6665 35.7265 77.46 35.7085 77.2536 35.6665C77.2414 35.6665 77.2293 35.6785 77.2293 35.6905C77.6786 37.0051 78.9295 37.9655 80.4173 38.0135C80.4355 38.0135 80.4476 38.0375 80.4294 38.0495C79.2453 38.9379 77.7576 39.4662 76.1423 39.4662C75.863 39.4662 75.5837 39.4482 75.3104 39.4181C76.8528 40.3786 78.6867 40.9428 80.6541 40.9428C83.3684 40.9428 85.5606 40.0184 87.1879 38.6138C88.8275 37.1971 89.8962 35.2823 90.3395 33.3374C90.4974 32.6531 90.5763 31.9628 90.5763 31.2905C90.5763 31.1464 90.5702 30.9964 90.5642 30.8523C91.1957 30.4081 91.7483 29.8618 92.1976 29.2436C92.228 29.2076 92.1794 29.1475 92.1308 29.1715Z" fill="#C9E7FF"/>
<path d="M80.4235 37.755C80.5458 37.7576 80.6391 37.837 80.6767 37.9301C80.6971 37.9807 80.7053 38.0444 80.6861 38.1107C80.6676 38.1748 80.6282 38.2248 80.5817 38.2584C79.4171 39.1314 77.9704 39.6678 76.398 39.7204C77.6822 40.3354 79.1267 40.6843 80.6541 40.6843C83.306 40.6843 85.4382 39.7824 87.0189 38.4182C88.6139 37.04 89.6555 35.1749 90.0874 33.28L90.0876 33.2793C90.2412 32.6135 90.3178 31.9427 90.3178 31.2905C90.3178 31.1527 90.312 31.0078 90.3059 30.8632L90.2999 30.7221L90.4154 30.6408C90.8264 30.3518 91.2027 30.0178 91.5371 29.6478C91.1471 29.761 90.7428 29.844 90.3257 29.8907L90.1669 29.4104C90.6259 29.1429 91.0095 28.7699 91.2836 28.326M80.4235 37.755C80.4242 37.7551 80.4249 37.7551 80.4256 37.7551L80.4173 38.0135V37.755C80.4194 37.755 80.4214 37.755 80.4235 37.755ZM80.4235 37.755C79.1887 37.7144 78.133 36.9965 77.628 35.9767M77.628 35.9767C77.7114 35.9824 77.795 35.985 77.879 35.985C78.2234 35.985 78.5556 35.94 78.8689 35.8562L78.8524 35.3529C77.7611 35.136 76.8833 34.3851 76.4784 33.4066M77.628 35.9767C77.5845 35.8889 77.5451 35.7988 77.51 35.7067L77.3271 35.9426C77.4274 35.9588 77.5276 35.9699 77.628 35.9767ZM76.4784 33.4066C76.4023 33.2225 76.3483 32.9738 76.3129 32.7416C76.3083 32.7117 76.3041 32.6824 76.3002 32.6539M76.4784 33.4066L76.2395 33.5055L76.4784 33.4068C76.4784 33.4067 76.4784 33.4067 76.4784 33.4066ZM76.3002 32.6539C76.6663 32.797 77.0602 32.8857 77.4741 32.9104M76.3002 32.6539C76.2845 32.5385 76.2743 32.4362 76.2681 32.361L78.7352 35.3567C78.578 35.3988 78.4149 35.4296 78.247 35.448C77.3295 35.1023 76.6056 34.3902 76.2395 33.5055C76.1187 33.2131 76.0551 32.8078 76.025 32.5337C76.1149 32.5772 76.2066 32.6173 76.3002 32.6539ZM77.4741 32.9104C77.5381 32.9183 77.6011 32.9029 77.6527 32.8703C77.7124 32.8326 77.7473 32.7789 77.7649 32.7311C77.7989 32.6387 77.7893 32.4903 77.6595 32.4029M77.4741 32.9104C77.4788 32.9107 77.4834 32.911 77.488 32.9112L77.5025 32.6531M77.4741 32.9104C77.4566 32.9083 77.4391 32.9044 77.4216 32.8986L77.5025 32.6531M77.6595 32.4029C76.8207 31.8293 76.2794 30.8925 76.2794 29.8318C76.2794 29.3879 76.3727 28.9684 76.5431 28.5859M77.6595 32.4029C77.6587 32.4024 77.6578 32.4018 77.657 32.4012L77.5147 32.6171M77.6595 32.4029C77.6599 32.4032 77.6602 32.4034 77.6606 32.4036L77.5147 32.6171M76.5431 28.5859C78.3015 30.5293 80.8305 31.7916 83.6653 31.9329L84.0104 31.9501L83.9295 31.6141C83.8736 31.3822 83.8456 31.1444 83.8456 30.9003C83.8456 29.1769 85.2837 27.7673 87.0726 27.7673C88.0021 27.7673 88.8405 28.1514 89.4309 28.7629L89.5283 28.8637L89.6659 28.8371C90.233 28.7277 90.7732 28.5548 91.2836 28.326M76.5431 28.5859C76.5809 28.5012 76.6224 28.4183 76.6676 28.3374L77.3244 32.4776C77.3385 32.4615 77.3558 32.4463 77.3766 32.4331C77.4176 32.4072 77.4667 32.3935 77.517 32.3955C77.5391 32.3964 77.5615 32.4003 77.5835 32.4076L77.5511 32.3969L77.517 32.395C77.4035 32.3886 77.2917 32.3767 77.1819 32.3595C76.4682 31.7357 76.0209 30.8362 76.0209 29.8318C76.0209 29.309 76.1404 28.8169 76.3568 28.374C76.4179 28.4455 76.48 28.5162 76.5431 28.5859ZM91.2836 28.326C91.4186 28.2655 91.5516 28.201 91.6824 28.1327L83.6263 31.413C83.6001 31.2447 83.587 31.0738 83.587 30.9003C83.587 29.0275 85.1476 27.5088 87.0726 27.5088C88.0745 27.5088 88.9793 27.923 89.6169 28.5833C90.279 28.4556 90.9029 28.2382 91.4845 27.9438C91.4263 28.0761 91.3591 28.2037 91.2836 28.326ZM77.5147 32.6171C77.5329 32.6291 77.5208 32.6591 77.5025 32.6531M77.5147 32.6171L77.368 32.83C77.2914 32.7772 77.2651 32.6998 77.2657 32.6321C77.3399 32.6411 77.4149 32.6479 77.4906 32.6524C77.4908 32.6524 77.4911 32.6524 77.4914 32.6525C77.4951 32.6527 77.4988 32.6529 77.5025 32.6531M77.2536 35.6665V35.6822L77.2827 35.6722C77.273 35.6703 77.2633 35.6684 77.2536 35.6665ZM77.2536 35.6665L77.2501 35.6833L77.2293 35.6905M77.2536 35.6665C77.2414 35.6665 77.2293 35.6785 77.2293 35.6905M77.2293 35.6905C77.2333 35.7022 77.2374 35.7139 77.2415 35.7256L77.2487 35.6905H77.2293ZM76.027 32.2449L76.0211 32.2567L76.0184 32.2623L76.0041 32.2912C76.0067 32.3385 76.0123 32.4117 76.0216 32.5012C76.0586 32.5006 76.0975 32.4913 76.1352 32.47C76.1767 32.4465 76.2181 32.4066 76.2416 32.3493C76.1792 32.3215 76.1177 32.2919 76.0572 32.2607C76.0509 32.2575 76.0446 32.2542 76.0383 32.2509C76.0345 32.2489 76.0307 32.2469 76.027 32.2449ZM76.027 32.2449L76.0206 32.2569L76.0178 32.2623L76.0039 32.2885C76.0034 32.2788 76.003 32.2703 76.0027 32.2629C75.9966 32.2449 76.0148 32.2389 76.027 32.2449ZM76.4763 28.1511L76.4864 28.1613L76.4901 28.165L76.6581 28.3349C76.6324 28.3603 76.6069 28.3743 76.5906 28.3818C76.5725 28.3901 76.5499 28.3976 76.5232 28.4009C76.4975 28.4041 76.455 28.4049 76.4066 28.3862C76.3912 28.3802 76.3762 28.3725 76.362 28.3634C76.3892 28.3083 76.4178 28.254 76.4479 28.2005C76.4531 28.1913 76.4584 28.182 76.4637 28.1728C76.4679 28.1656 76.4721 28.1583 76.4763 28.1511ZM76.4763 28.1511L76.4904 28.1593L76.4942 28.1616L76.5364 28.1863C76.5265 28.1745 76.5166 28.1628 76.5067 28.1511C76.5006 28.1391 76.4824 28.1451 76.4763 28.1511ZM91.7847 27.893L91.7317 27.8729L91.7309 27.8725L91.6668 27.8482C91.6229 27.872 91.5788 27.8954 91.5344 27.9183C91.5453 27.9665 91.5729 28.0076 91.6054 28.034C91.6322 28.0556 91.6682 28.0721 91.7081 28.0771C91.7288 28.0314 91.7484 27.9851 91.767 27.9383C91.7673 27.9377 91.7675 27.9372 91.7677 27.9366C91.7735 27.9221 91.7791 27.9076 91.7847 27.893ZM91.7847 27.893C91.8029 27.8449 91.7483 27.8029 91.7058 27.8269C91.6929 27.834 91.68 27.8411 91.667 27.8481L91.7308 27.8724L91.7316 27.8727L91.7847 27.893ZM77.2536 35.759C77.2731 35.8122 77.2939 35.8648 77.316 35.9168C77.3615 35.9044 77.396 35.8801 77.4187 35.8578C77.4486 35.8281 77.4835 35.7761 77.4874 35.7041C77.4542 35.7001 77.4211 35.6956 77.388 35.6905H77.2536V35.759Z" stroke="url(#paint3_linear_1_22)" stroke-width="0.517061"/>
</g>
<g filter="url(#filter4_f_1_22)">
<path d="M138.358 51.3442C148.278 51.3442 156.32 43.3946 156.32 33.5882C156.32 23.7819 148.278 15.8323 138.358 15.8323C128.438 15.8323 120.396 23.7819 120.396 33.5882C120.396 43.3946 128.438 51.3442 138.358 51.3442Z" fill="#AD69F0" fill-opacity="0.6"/>
</g>
<path d="M139.566 50.8567C149.487 50.8567 157.528 42.907 157.528 33.1007C157.528 23.2943 149.487 15.3447 139.566 15.3447C129.646 15.3447 121.604 23.2943 121.604 33.1007C121.604 42.907 129.646 50.8567 139.566 50.8567Z" fill="url(#paint4_linear_1_22)"/>
<g filter="url(#filter5_f_1_22)">
<path d="M153.957 33.1007C153.957 40.9514 147.518 47.3225 139.566 47.3225C131.615 47.3225 125.176 40.9514 125.176 33.1007C125.176 25.2499 131.615 18.8789 139.566 18.8789C147.518 18.8789 153.957 25.2499 153.957 33.1007Z" stroke="url(#paint5_linear_1_22)" stroke-width="0.689415"/>
</g>
<g filter="url(#filter6_f_1_22)">
<path d="M153.957 33.1007C153.957 40.9514 147.518 47.3225 139.566 47.3225C131.615 47.3225 125.176 40.9514 125.176 33.1007C125.176 25.2499 131.615 18.8789 139.566 18.8789C147.518 18.8789 153.957 25.2499 153.957 33.1007Z" stroke="url(#paint6_linear_1_22)" stroke-width="0.689415"/>
</g>
<g filter="url(#filter7_d_1_22)">
<path d="M139.518 38.4251C142.171 38.4251 144.333 36.2881 144.333 33.6649C144.333 31.0417 142.171 28.9048 139.518 28.9048C136.864 28.9048 134.702 31.0417 134.702 33.6649C134.702 36.2881 136.864 38.4251 139.518 38.4251ZM135.874 33.6649C135.874 31.672 137.514 30.0573 139.524 30.0573C141.534 30.0573 143.173 31.678 143.173 33.6649C143.173 35.6518 141.534 37.2725 139.524 37.2725C137.508 37.2725 135.874 35.6518 135.874 33.6649Z" fill="url(#paint7_linear_1_22)"/>
<path d="M144.327 41.5705H134.721C132.917 41.5705 131.448 40.1179 131.448 38.3351V28.9889C131.448 27.2061 132.917 25.7534 134.721 25.7534H144.327C146.131 25.7534 147.6 27.2061 147.6 28.9889V38.3411C147.594 40.1239 146.131 41.5705 144.327 41.5705ZM134.715 26.9359C133.567 26.9359 132.638 27.8544 132.638 28.9889V38.3411C132.638 39.4756 133.567 40.394 134.715 40.394H144.321C145.469 40.394 146.398 39.4756 146.398 38.3411V28.9889C146.398 27.8544 145.469 26.9359 144.321 26.9359H134.715V26.9359Z" fill="url(#paint8_linear_1_22)"/>
</g>
<g filter="url(#filter8_f_1_22)">
<path d="M26.9621 50.5822C36.8822 50.5822 44.9241 42.6326 44.9241 32.8263C44.9241 23.0199 36.8822 15.0703 26.9621 15.0703C17.0419 15.0703 9 23.0199 9 32.8263C9 42.6326 17.0419 50.5822 26.9621 50.5822Z" fill="#5799EF" fill-opacity="0.39"/>
</g>
<path d="M26.9621 51.5461C36.8822 51.5461 44.9241 43.5965 44.9241 33.7901C44.9241 23.9838 36.8822 16.0342 26.9621 16.0342C17.0419 16.0342 9 23.9838 9 33.7901C9 43.5965 17.0419 51.5461 26.9621 51.5461Z" fill="url(#paint9_linear_1_22)"/>
<g filter="url(#filter9_f_1_22)">
<path d="M41.2172 34.2876C41.2172 42.0642 34.8387 48.3752 26.962 48.3752C19.0854 48.3752 12.7069 42.0642 12.7069 34.2876C12.7069 26.5109 19.0854 20.1999 26.962 20.1999C34.8387 20.1999 41.2172 26.5109 41.2172 34.2876Z" stroke="url(#paint10_linear_1_22)" stroke-width="0.689415"/>
</g>
<g filter="url(#filter10_f_1_22)">
<path d="M41.2172 34.2876C41.2172 42.0642 34.8387 48.3752 26.962 48.3752C19.0854 48.3752 12.7069 42.0642 12.7069 34.2876C12.7069 26.5109 19.0854 20.1999 26.962 20.1999C34.8387 20.1999 41.2172 26.5109 41.2172 34.2876Z" stroke="url(#paint11_linear_1_22)" stroke-width="0.689415"/>
</g>
<g filter="url(#filter11_bd_1_22)">
<path d="M28.6502 30.6506V29.246C28.6502 28.5617 29.1117 28.3996 29.4336 28.3996C29.7554 28.3996 31.4314 28.3996 31.4314 28.3996V25.3863L28.6806 25.3743C25.6323 25.3743 24.9339 27.6193 24.9339 29.0599V30.6506H23.1729V34.1682H24.9521C24.9521 38.154 24.9521 42.9621 24.9521 42.9621H28.5106C28.5106 42.9621 28.5106 38.106 28.5106 34.1682H31.1521L31.4739 30.6506H28.6502Z" fill="#E0EBFF"/>
<path d="M28.3917 30.6506V30.9092H28.6502H31.1906L30.9161 33.9097H28.5106H28.252V34.1682V34.1913V34.2144V34.2375V34.2607V34.2838V34.307V34.3302V34.3534V34.3767V34.3999V34.4232V34.4465V34.4698V34.4932V34.5165V34.5399V34.5633V34.5867V34.6101V34.6335V34.657V34.6804V34.7039V34.7274V34.7509V34.7745V34.798V34.8215V34.8451V34.8687V34.8923V34.9159V34.9395V34.9631V34.9868V35.0104V35.0341V35.0578V35.0815V35.1052V35.1289V35.1526V35.1764V35.2001V35.2238V35.2476V35.2714V35.2952V35.319V35.3427V35.3666V35.3904V35.4142V35.438V35.4619V35.4857V35.5095V35.5334V35.5573V35.5811V35.605V35.6289V35.6528V35.6766V35.7005V35.7244V35.7483V35.7722V35.7961V35.8201V35.844V35.8679V35.8918V35.9157V35.9396V35.9636V35.9875V36.0114V36.0353V36.0593V36.0832V36.1071V36.1311V36.155V36.1789V36.2028V36.2268V36.2507V36.2746V36.2985V36.3225V36.3464V36.3703V36.3942V36.4181V36.442V36.4659V36.4898V36.5137V36.5376V36.5615V36.5853V36.6092V36.6331V36.6569V36.6808V36.7046V36.7285V36.7523V36.7761V36.8V36.8238V36.8476V36.8714V36.8952V36.9189V36.9427V36.9665V36.9902V37.014V37.0377V37.0614V37.0851V37.1088V37.1325V37.1562V37.1799V37.2035V37.2271V37.2508V37.2744V37.298V37.3216V37.3452V37.3687V37.3923V37.4158V37.4393V37.4629V37.4864V37.5098V37.5333V37.5567V37.5802V37.6036V37.627V37.6504V37.6737V37.6971V37.7204V37.7437V37.767V37.7903V37.8136V37.8368V37.86V37.8832V37.9064V37.9296V37.9527V37.9758V37.9989V38.022V38.0451V38.0681V38.0911V38.1141V38.1371V38.16V38.183V38.2059V38.2288V38.2516V38.2744V38.2973V38.32V38.3428V38.3655V38.3883V38.4109V38.4336V38.4562V38.4788V38.5014V38.524V38.5465V38.569V38.5915V38.6139V38.6364V38.6588V38.6811V38.7035V38.7258V38.7481V38.7703V38.7925V38.8147V38.8369V38.859V38.8811V38.9032V38.9252V38.9472V38.9692V38.9911V39.013V39.0349V39.0568V39.0786V39.1003V39.1221V39.1438V39.1655V39.1871V39.2087V39.2303V39.2518V39.2733V39.2948V39.3162V39.3376V39.359V39.3803V39.4016V39.4229V39.4441V39.4653V39.4864V39.5075V39.5285V39.5496V39.5706V39.5915V39.6124V39.6333V39.6541V39.6749V39.6956V39.7163V39.737V39.7576V39.7782V39.7987V39.8192V39.8397V39.8601V39.8805V39.9008V39.9211V39.9413V39.9615V39.9817V40.0018V40.0218V40.0418V40.0618V40.0817V40.1016V40.1215V40.1412V40.161V40.1807V40.2003V40.2199V40.2395V40.259V40.2785V40.2979V40.3172V40.3366V40.3558V40.375V40.3942V40.4133V40.4324V40.4514V40.4704V40.4893V40.5082V40.527V40.5457V40.5644V40.5831V40.6017V40.6203V40.6388V40.6572V40.6756V40.6939V40.7122V40.7305V40.7486V40.7668V40.7848V40.8028V40.8208V40.8387V40.8566V40.8743V40.8921V40.9098V40.9274V40.9449V40.9624V40.9799V40.9973V41.0146V41.0319V41.0491V41.0663V41.0834V41.1004V41.1174V41.1343V41.1511V41.1679V41.1847V41.2014V41.218V41.2345V41.251V41.2674V41.2838V41.3001V41.3163V41.3325V41.3486V41.3647V41.3807V41.3966V41.4125V41.4282V41.444V41.4596V41.4752V41.4908V41.5062V41.5216V41.537V41.5522V41.5674V41.5826V41.5976V41.6126V41.6275V41.6424V41.6572V41.6719V41.6866V41.7012V41.7157V41.7301V41.7445V41.7588V41.773V41.7872V41.8013V41.8153V41.8292V41.8431V41.8569V41.8707V41.8843V41.8979V41.9114V41.9249V41.9382V41.9515V41.9647V41.9779V41.9909V42.0039V42.0169V42.0297V42.0425V42.0552V42.0678V42.0803V42.0928V42.1052V42.1175V42.1297V42.1418V42.1539V42.1659V42.1778V42.1897V42.2014V42.2131V42.2247V42.2362V42.2477V42.259V42.2703V42.2815V42.2926V42.3036V42.3146V42.3255V42.3363V42.347V42.3576V42.3681V42.3786V42.389V42.3992V42.4095V42.4196V42.4296V42.4396V42.4494V42.4592V42.4689V42.4785V42.488V42.4975V42.5068V42.5161V42.5253V42.5344V42.5434V42.5523V42.5611V42.5698V42.5785V42.587V42.5955V42.6039V42.6122V42.6204V42.6285V42.6365V42.6445V42.6523V42.66V42.6677V42.6753V42.6827V42.6901V42.6974V42.7036H25.2107V42.6998V42.6926V42.6852V42.6778V42.6703V42.6627V42.6551V42.6473V42.6394V42.6315V42.6234V42.6153V42.6071V42.5988V42.5904V42.5819V42.5733V42.5646V42.5559V42.547V42.5381V42.5291V42.52V42.5108V42.5015V42.4922V42.4827V42.4732V42.4636V42.4538V42.4441V42.4342V42.4242V42.4142V42.4041V42.3939V42.3836V42.3732V42.3627V42.3522V42.3416V42.3309V42.3201V42.3092V42.2982V42.2872V42.2761V42.2649V42.2536V42.2423V42.2308V42.2193V42.2077V42.1961V42.1843V42.1725V42.1606V42.1486V42.1365V42.1244V42.1122V42.0999V42.0875V42.0751V42.0625V42.0499V42.0373V42.0245V42.0117V41.9988V41.9858V41.9727V41.9596V41.9464V41.9331V41.9198V41.9064V41.8929V41.8793V41.8657V41.852V41.8382V41.8243V41.8104V41.7964V41.7823V41.7682V41.754V41.7397V41.7253V41.7109V41.6964V41.6819V41.6672V41.6525V41.6378V41.6229V41.608V41.5931V41.578V41.5629V41.5478V41.5325V41.5172V41.5018V41.4864V41.4709V41.4553V41.4397V41.424V41.4082V41.3924V41.3765V41.3606V41.3445V41.3285V41.3123V41.2961V41.2798V41.2635V41.2471V41.2306V41.2141V41.1975V41.1809V41.1642V41.1474V41.1306V41.1137V41.0968V41.0798V41.0627V41.0456V41.0284V41.0111V40.9938V40.9765V40.9591V40.9416V40.9241V40.9065V40.8888V40.8711V40.8534V40.8355V40.8177V40.7997V40.7818V40.7637V40.7456V40.7275V40.7093V40.691V40.6727V40.6544V40.6359V40.6175V40.5989V40.5804V40.5617V40.5431V40.5243V40.5055V40.4867V40.4678V40.4489V40.4299V40.4109V40.3918V40.3726V40.3534V40.3342V40.3149V40.2956V40.2762V40.2568V40.2373V40.2178V40.1982V40.1786V40.1589V40.1392V40.1194V40.0996V40.0798V40.0598V40.0399V40.0199V39.9999V39.9798V39.9597V39.9395V39.9193V39.899V39.8787V39.8584V39.838V39.8175V39.7971V39.7765V39.756V39.7354V39.7147V39.6941V39.6733V39.6526V39.6318V39.6109V39.59V39.5691V39.5481V39.5271V39.5061V39.485V39.4639V39.4427V39.4215V39.4003V39.379V39.3577V39.3363V39.3149V39.2935V39.2721V39.2506V39.229V39.2075V39.1859V39.1642V39.1426V39.1209V39.0991V39.0774V39.0555V39.0337V39.0118V38.9899V38.968V38.946V38.924V38.902V38.8799V38.8578V38.8357V38.8135V38.7913V38.7691V38.7468V38.7245V38.7022V38.6799V38.6575V38.6351V38.6127V38.5902V38.5677V38.5452V38.5227V38.5001V38.4775V38.4549V38.4322V38.4096V38.3869V38.3641V38.3414V38.3186V38.2958V38.2729V38.2501V38.2272V38.2043V38.1814V38.1584V38.1354V38.1124V38.0894V38.0664V38.0433V38.0202V37.9971V37.974V37.9508V37.9277V37.9045V37.8812V37.858V37.8347V37.8115V37.7882V37.7648V37.7415V37.7182V37.6948V37.6714V37.648V37.6245V37.6011V37.5776V37.5542V37.5307V37.5071V37.4836V37.4601V37.4365V37.4129V37.3893V37.3657V37.3421V37.3185V37.2948V37.2711V37.2475V37.2238V37.2001V37.1763V37.1526V37.1289V37.1051V37.0813V37.0575V37.0337V37.0099V36.9861V36.9623V36.9385V36.9146V36.8907V36.8669V36.843V36.8191V36.7952V36.7713V36.7474V36.7235V36.6995V36.6756V36.6516V36.6277V36.6037V36.5798V36.5558V36.5318V36.5078V36.4838V36.4598V36.4358V36.4118V36.3878V36.3638V36.3398V36.3157V36.2917V36.2677V36.2436V36.2196V36.1955V36.1715V36.1475V36.1234V36.0994V36.0753V36.0512V36.0272V36.0031V35.9791V35.955V35.931V35.9069V35.8828V35.8588V35.8347V35.8107V35.7866V35.7626V35.7385V35.7145V35.6904V35.6664V35.6423V35.6183V35.5943V35.5703V35.5462V35.5222V35.4982V35.4742V35.4502V35.4262V35.4022V35.3782V35.3542V35.3302V35.3063V35.2823V35.2583V35.2344V35.2104V35.1865V35.1626V35.1387V35.1147V35.0908V35.067V35.0431V35.0192V34.9953V34.9715V34.9476V34.9238V34.9V34.8762V34.8524V34.8286V34.8048V34.781V34.7573V34.7336V34.7098V34.6861V34.6624V34.6387V34.615V34.5914V34.5677V34.5441V34.5205V34.4969V34.4733V34.4497V34.4262V34.4026V34.3791V34.3556V34.3321V34.3087V34.2852V34.2618V34.2384V34.215V34.1916V34.1682V33.9097H24.9521H23.4315V30.9092H24.9339H25.1925V30.6506V29.0599C25.1925 28.3742 25.3598 27.514 25.871 26.8319C26.3725 26.1628 27.2284 25.6329 28.68 25.6328C28.6802 25.6328 28.6804 25.6328 28.6806 25.6328L31.1729 25.6437V28.1411H31.172H31.1683H31.1645H31.1607H31.1568H31.153H31.1491H31.1452H31.1413H31.1374H31.1334H31.1294H31.1254H31.1214H31.1174H31.1134H31.1093H31.1052H31.1011H31.0969H31.0928H31.0886H31.0845H31.0802H31.076H31.0718H31.0675H31.0633H31.059H31.0547H31.0503H31.046H31.0416H31.0372H31.0328H31.0284H31.024H31.0196H31.0151H31.0106H31.0061H31.0016H30.9971H30.9926H30.988H30.9834H30.9788H30.9742H30.9696H30.965H30.9603H30.9557H30.951H30.9463H30.9416H30.9369H30.9322H30.9274H30.9227H30.9179H30.9131H30.9083H30.9035H30.8987H30.8938H30.889H30.8841H30.8792H30.8744H30.8695H30.8645H30.8596H30.8547H30.8497H30.8448H30.8398H30.8348H30.8299H30.8248H30.8198H30.8148H30.8098H30.8047H30.7997H30.7946H30.7895H30.7845H30.7794H30.7743H30.7692H30.764H30.7589H30.7538H30.7486H30.7435H30.7383H30.7331H30.7279H30.7227H30.7175H30.7123H30.7071H30.7019H30.6967H30.6914H30.6862H30.6809H30.6757H30.6704H30.6652H30.6599H30.6546H30.6493H30.644H30.6387H30.6334H30.6281H30.6228H30.6174H30.6121H30.6068H30.6014H30.5961H30.5907H30.5854H30.58H30.5747H30.5693H30.5639H30.5585H30.5532H30.5478H30.5424H30.537H30.5316H30.5262H30.5208H30.5154H30.51H30.5046H30.4992H30.4938H30.4884H30.4829H30.4775H30.4721H30.4667H30.4613H30.4558H30.4504H30.445H30.4395H30.4341H30.4287H30.4233H30.4178H30.4124H30.407H30.4015H30.3961H30.3907H30.3852H30.3798H30.3744H30.3689H30.3635H30.3581H30.3527H30.3472H30.3418H30.3364H30.331H30.3256H30.3201H30.3147H30.3093H30.3039H30.2985H30.2931H30.2877H30.2823H30.2769H30.2715H30.2661H30.2607H30.2554H30.25H30.2446H30.2392H30.2339H30.2285H30.2232H30.2178H30.2125H30.2071H30.2018H30.1964H30.1911H30.1858H30.1805H30.1752H30.1699H30.1646H30.1593H30.154H30.1487H30.1434H30.1382H30.1329H30.1277H30.1224H30.1172H30.1119H30.1067H30.1015H30.0963H30.0911H30.0859H30.0807H30.0755H30.0704H30.0652H30.0601H30.0549H30.0498H30.0447H30.0395H30.0344H30.0293H30.0242H30.0192H30.0141H30.009H30.004H29.999H29.9939H29.9889H29.9839H29.9789H29.9739H29.969H29.964H29.959H29.9541H29.9492H29.9443H29.9394H29.9345H29.9296H29.9247H29.9199H29.915H29.9102H29.9054H29.9006H29.8958H29.891H29.8862H29.8815H29.8768H29.872H29.8673H29.8626H29.858H29.8533H29.8486H29.844H29.8394H29.8348H29.8302H29.8256H29.821H29.8165H29.812H29.8074H29.8029H29.7985H29.794H29.7895H29.7851H29.7807H29.7763H29.7719H29.7675H29.7632H29.7588H29.7545H29.7502H29.746H29.7417H29.7374H29.7332H29.729H29.7248H29.7206H29.7165H29.7123H29.7082H29.7041H29.7001H29.696H29.692H29.6879H29.6839H29.6799H29.676H29.672H29.6681H29.6642H29.6603H29.6565H29.6526H29.6488H29.645H29.6412H29.6375H29.6338H29.63H29.6264H29.6227H29.619H29.6154H29.6118H29.6082H29.6047H29.6011H29.5976H29.5941H29.5907H29.5872H29.5838H29.5804H29.577H29.5737H29.5704H29.567H29.5638H29.5605H29.5573H29.5541H29.5509H29.5477H29.5446H29.5415H29.5384H29.5354H29.5323H29.5293H29.5264H29.5234H29.5205H29.5176H29.5147H29.5119H29.509H29.5062H29.5035H29.5007H29.498H29.4953H29.4927H29.49H29.4874H29.4849H29.4823H29.4798H29.4773H29.4748H29.4724H29.47H29.4676H29.4653H29.4629H29.4606H29.4584H29.4562H29.4539H29.4518H29.4496H29.4475H29.4454H29.4434H29.4414H29.4394H29.4374H29.4355H29.4336C29.2355 28.1411 28.9747 28.1901 28.7585 28.3653C28.532 28.5488 28.3917 28.8401 28.3917 29.246V30.6506Z" stroke="url(#paint12_linear_1_22)" stroke-width="0.517061"/>
</g>
<g filter="url(#filter12_f_1_22)">
<path d="M196.038 51.4241C205.958 51.4241 214 43.4745 214 33.6681C214 23.8617 205.958 15.9121 196.038 15.9121C186.118 15.9121 178.076 23.8617 178.076 33.6681C178.076 43.4745 186.118 51.4241 196.038 51.4241Z" fill="#FF9696" fill-opacity="0.6"/>
</g>
<path d="M195.064 50.5119C204.985 50.5119 213.026 42.5623 213.026 32.756C213.026 22.9496 204.985 15 195.064 15C185.144 15 177.102 22.9496 177.102 32.756C177.102 42.5623 185.144 50.5119 195.064 50.5119Z" fill="url(#paint13_linear_1_22)"/>
<g filter="url(#filter13_f_1_22)">
<path d="M195.064 46.2598C202.944 46.2598 209.332 39.9452 209.332 32.1558C209.332 24.3663 202.944 18.0518 195.064 18.0518C187.185 18.0518 180.797 24.3663 180.797 32.1558C180.797 39.9452 187.185 46.2598 195.064 46.2598Z" fill="url(#paint14_linear_1_22)"/>
<path d="M208.987 32.1558C208.987 39.7511 202.758 45.9151 195.064 45.9151C187.371 45.9151 181.141 39.7511 181.141 32.1558C181.141 24.5605 187.371 18.3965 195.064 18.3965C202.758 18.3965 208.987 24.5605 208.987 32.1558Z" stroke="url(#paint15_linear_1_22)" stroke-width="0.689415"/>
</g>
<g filter="url(#filter14_f_1_22)">
<path d="M195.064 46.2598C202.944 46.2598 209.332 39.9452 209.332 32.1558C209.332 24.3663 202.944 18.0518 195.064 18.0518C187.185 18.0518 180.797 24.3663 180.797 32.1558C180.797 39.9452 187.185 46.2598 195.064 46.2598Z" fill="url(#paint16_linear_1_22)"/>
<path d="M208.987 32.1558C208.987 39.7511 202.758 45.9151 195.064 45.9151C187.371 45.9151 181.141 39.7511 181.141 32.1558C181.141 24.5605 187.371 18.3965 195.064 18.3965C202.758 18.3965 208.987 24.5605 208.987 32.1558Z" stroke="url(#paint17_linear_1_22)" stroke-width="0.689415"/>
</g>
<g filter="url(#filter15_f_1_22)">
<path d="M195.064 46.2598C202.944 46.2598 209.332 39.9452 209.332 32.1558C209.332 24.3663 202.944 18.0518 195.064 18.0518C187.185 18.0518 180.797 24.3663 180.797 32.1558C180.797 39.9452 187.185 46.2598 195.064 46.2598Z" fill="url(#paint18_linear_1_22)"/>
<path d="M208.987 32.1558C208.987 39.7511 202.758 45.9151 195.064 45.9151C187.371 45.9151 181.141 39.7511 181.141 32.1558C181.141 24.5605 187.371 18.3965 195.064 18.3965C202.758 18.3965 208.987 24.5605 208.987 32.1558Z" stroke="url(#paint19_linear_1_22)" stroke-width="0.689415"/>
</g>
<g filter="url(#filter16_d_1_22)">
<path d="M200.572 32.1316L193.534 26.9213C192.702 26.303 191.512 26.8912 191.512 27.9237V38.3504C191.512 39.3829 192.702 39.9651 193.534 39.3528L200.572 34.1425C201.246 33.6323 201.246 32.6358 200.572 32.1316Z" fill="url(#paint20_linear_1_22)" shape-rendering="crispEdges"/>
</g>
<defs>
<filter id="filter0_f_1_22" x="58.9466" y="8.83396" width="50.3693" height="49.9813" filterUnits="userSpaceOnUse" color-interpolation-filters="sRGB">
<feFlood flood-opacity="0" result="BackgroundImageFix"/>
<feBlend mode="normal" in="SourceGraphic" in2="BackgroundImageFix" result="shape"/>
<feGaussianBlur stdDeviation="4.13649" result="effect1_foregroundBlur_1_22"/>
</filter>
<filter id="filter1_f_1_22" x="65.5598" y="16.1357" width="34.9493" height="34.6193" filterUnits="userSpaceOnUse" color-interpolation-filters="sRGB">
<feFlood flood-opacity="0" result="BackgroundImageFix"/>
<feBlend mode="normal" in="SourceGraphic" in2="BackgroundImageFix" result="shape"/>
<feGaussianBlur stdDeviation="1.55118" result="effect1_foregroundBlur_1_22"/>
</filter>
<filter id="filter2_f_1_22" x="64.8704" y="15.4463" width="36.3281" height="35.9981" filterUnits="userSpaceOnUse" color-interpolation-filters="sRGB">
<feFlood flood-opacity="0" result="BackgroundImageFix"/>
<feBlend mode="normal" in="SourceGraphic" in2="BackgroundImageFix" result="shape"/>
<feGaussianBlur stdDeviation="1.89589" result="effect1_foregroundBlur_1_22"/>
</filter>
<filter id="filter3_d_1_22" x="74.2763" y="27.5088" width="18.9649" height="15.5023" filterUnits="userSpaceOnUse" color-interpolation-filters="sRGB">
<feFlood flood-opacity="0" result="BackgroundImageFix"/>
<feColorMatrix in="SourceAlpha" type="matrix" values="0 0 0 0 0 0 0 0 0 0 0 0 0 0 0 0 0 0 127 0" result="hardAlpha"/>
<feOffset dy="1.03412"/>
<feGaussianBlur stdDeviation="0.517061"/>
<feComposite in2="hardAlpha" operator="out"/>
<feColorMatrix type="matrix" values="0 0 0 0 0.10028 0 0 0 0 0.097309 0 0 0 0 0.245833 0 0 0 0.28 0"/>
<feBlend mode="normal" in2="BackgroundImageFix" result="effect1_dropShadow_1_22"/>
<feBlend mode="normal" in="SourceGraphic" in2="effect1_dropShadow_1_22" result="shape"/>
</filter>
<filter id="filter4_f_1_22" x="104.884" y="0.320445" width="66.9478" height="66.5356" filterUnits="userSpaceOnUse" color-interpolation-filters="sRGB">
<feFlood flood-opacity="0" result="BackgroundImageFix"/>
<feBlend mode="normal" in="SourceGraphic" in2="BackgroundImageFix" result="shape"/>
<feGaussianBlur stdDeviation="7.75592" result="effect1_foregroundBlur_1_22"/>
</filter>
<filter id="filter5_f_1_22" x="121.728" y="15.4318" width="35.6759" height="35.3378" filterUnits="userSpaceOnUse" color-interpolation-filters="sRGB">
<feFlood flood-opacity="0" result="BackgroundImageFix"/>
<feBlend mode="normal" in="SourceGraphic" in2="BackgroundImageFix" result="shape"/>
<feGaussianBlur stdDeviation="1.55118" result="effect1_foregroundBlur_1_22"/>
</filter>
<filter id="filter6_f_1_22" x="119.66" y="13.3636" width="39.8124" height="39.4743" filterUnits="userSpaceOnUse" color-interpolation-filters="sRGB">
<feFlood flood-opacity="0" result="BackgroundImageFix"/>
<feBlend mode="normal" in="SourceGraphic" in2="BackgroundImageFix" result="shape"/>
<feGaussianBlur stdDeviation="2.5853" result="effect1_foregroundBlur_1_22"/>
</filter>
<filter id="filter7_d_1_22" x="131.103" y="25.7534" width="17.5313" height="17.5407" filterUnits="userSpaceOnUse" color-interpolation-filters="sRGB">
<feFlood flood-opacity="0" result="BackgroundImageFix"/>
<feColorMatrix in="SourceAlpha" type="matrix" values="0 0 0 0 0 0 0 0 0 0 0 0 0 0 0 0 0 0 127 0" result="hardAlpha"/>
<feOffset dx="0.344707" dy="1.03412"/>
<feGaussianBlur stdDeviation="0.344707"/>
<feComposite in2="hardAlpha" operator="out"/>
<feColorMatrix type="matrix" values="0 0 0 0 0 0 0 0 0 0 0 0 0 0 0 0 0 0 0.14 0"/>
<feBlend mode="normal" in2="BackgroundImageFix" result="effect1_dropShadow_1_22"/>
<feBlend mode="normal" in="SourceGraphic" in2="effect1_dropShadow_1_22" result="shape"/>
</filter>
<filter id="filter8_f_1_22" x="0.382317" y="6.45263" width="53.1595" height="52.7473" filterUnits="userSpaceOnUse" color-interpolation-filters="sRGB">
<feFlood flood-opacity="0" result="BackgroundImageFix"/>
<feBlend mode="normal" in="SourceGraphic" in2="BackgroundImageFix" result="shape"/>
<feGaussianBlur stdDeviation="4.30884" result="effect1_foregroundBlur_1_22"/>
</filter>
<filter id="filter9_f_1_22" x="8.91512" y="16.4082" width="36.0938" height="35.7589" filterUnits="userSpaceOnUse" color-interpolation-filters="sRGB">
<feFlood flood-opacity="0" result="BackgroundImageFix"/>
<feBlend mode="normal" in="SourceGraphic" in2="BackgroundImageFix" result="shape"/>
<feGaussianBlur stdDeviation="1.72354" result="effect1_foregroundBlur_1_22"/>
</filter>
<filter id="filter10_f_1_22" x="6.15747" y="13.6505" width="41.6092" height="41.2742" filterUnits="userSpaceOnUse" color-interpolation-filters="sRGB">
<feFlood flood-opacity="0" result="BackgroundImageFix"/>
<feBlend mode="normal" in="SourceGraphic" in2="BackgroundImageFix" result="shape"/>
<feGaussianBlur stdDeviation="3.10237" result="effect1_foregroundBlur_1_22"/>
</filter>
<filter id="filter11_bd_1_22" x="21.4494" y="23.9954" width="11.4033" height="20.6903" filterUnits="userSpaceOnUse" color-interpolation-filters="sRGB">
<feFlood flood-opacity="0" result="BackgroundImageFix"/>
<feGaussianBlur in="BackgroundImageFix" stdDeviation="0.689415"/>
<feComposite in2="SourceAlpha" operator="in" result="effect1_backgroundBlur_1_22"/>
<feColorMatrix in="SourceAlpha" type="matrix" values="0 0 0 0 0 0 0 0 0 0 0 0 0 0 0 0 0 0 127 0" result="hardAlpha"/>
<feOffset dx="-0.689415" dy="0.689415"/>
<feGaussianBlur stdDeviation="0.517061"/>
<feComposite in2="hardAlpha" operator="out"/>
<feColorMatrix type="matrix" values="0 0 0 0 0 0 0 0 0 0 0 0 0 0 0 0 0 0 0.19 0"/>
<feBlend mode="normal" in2="effect1_backgroundBlur_1_22" result="effect2_dropShadow_1_22"/>
<feBlend mode="normal" in="SourceGraphic" in2="effect2_dropShadow_1_22" result="shape"/>
</filter>
<filter id="filter12_f_1_22" x="169.458" y="7.29443" width="53.1594" height="52.7473" filterUnits="userSpaceOnUse" color-interpolation-filters="sRGB">
<feFlood flood-opacity="0" result="BackgroundImageFix"/>
<feBlend mode="normal" in="SourceGraphic" in2="BackgroundImageFix" result="shape"/>
<feGaussianBlur stdDeviation="4.30884" result="effect1_foregroundBlur_1_22"/>
</filter>
<filter id="filter13_f_1_22" x="177.35" y="14.6047" width="35.4296" height="35.1022" filterUnits="userSpaceOnUse" color-interpolation-filters="sRGB">
<feFlood flood-opacity="0" result="BackgroundImageFix"/>
<feBlend mode="normal" in="SourceGraphic" in2="BackgroundImageFix" result="shape"/>
<feGaussianBlur stdDeviation="1.72354" result="effect1_foregroundBlur_1_22"/>
</filter>
<filter id="filter14_f_1_22" x="177.35" y="14.6047" width="35.4296" height="35.1022" filterUnits="userSpaceOnUse" color-interpolation-filters="sRGB">
<feFlood flood-opacity="0" result="BackgroundImageFix"/>
<feBlend mode="normal" in="SourceGraphic" in2="BackgroundImageFix" result="shape"/>
<feGaussianBlur stdDeviation="1.72354" result="effect1_foregroundBlur_1_22"/>
</filter>
<filter id="filter15_f_1_22" x="177.35" y="14.6047" width="35.4296" height="35.1022" filterUnits="userSpaceOnUse" color-interpolation-filters="sRGB">
<feFlood flood-opacity="0" result="BackgroundImageFix"/>
<feBlend mode="normal" in="SourceGraphic" in2="BackgroundImageFix" result="shape"/>
<feGaussianBlur stdDeviation="1.72354" result="effect1_foregroundBlur_1_22"/>
</filter>
<filter id="filter16_d_1_22" x="190.133" y="26.6689" width="12.3232" height="15.6913" filterUnits="userSpaceOnUse" color-interpolation-filters="sRGB">
<feFlood flood-opacity="0" result="BackgroundImageFix"/>
<feColorMatrix in="SourceAlpha" type="matrix" values="0 0 0 0 0 0 0 0 0 0 0 0 0 0 0 0 0 0 127 0" result="hardAlpha"/>
<feOffset dy="1.37883"/>
<feGaussianBlur stdDeviation="0.689415"/>
<feComposite in2="hardAlpha" operator="out"/>
<feColorMatrix type="matrix" values="0 0 0 0 0 0 0 0 0 0 0 0 0 0 0 0 0 0 0.19 0"/>
<feBlend mode="normal" in2="BackgroundImageFix" result="effect1_dropShadow_1_22"/>
<feBlend mode="normal" in="SourceGraphic" in2="effect1_dropShadow_1_22" result="shape"/>
</filter>
<linearGradient id="paint0_linear_1_22" x1="76.5126" y1="52.3604" x2="88.7706" y2="15.9595" gradientUnits="userSpaceOnUse">
<stop stop-color="#21D7FF"/>
<stop offset="0.8518" stop-color="#1C84DB"/>
<stop offset="1" stop-color="#1C84E4"/>
</linearGradient>
<linearGradient id="paint1_linear_1_22" x1="92.2598" y1="16.5681" x2="68.9835" y2="44.8841" gradientUnits="userSpaceOnUse">
<stop stop-color="white"/>
<stop offset="1" stop-color="white" stop-opacity="0"/>
</linearGradient>
<linearGradient id="paint2_linear_1_22" x1="92.2598" y1="16.5681" x2="68.9835" y2="44.8841" gradientUnits="userSpaceOnUse">
<stop stop-color="white"/>
<stop offset="1" stop-color="white" stop-opacity="0"/>
</linearGradient>
<linearGradient id="paint3_linear_1_22" x1="83.7587" y1="29.9229" x2="90.9974" y2="37.4393" gradientUnits="userSpaceOnUse">
<stop stop-color="white"/>
<stop offset="1" stop-color="white" stop-opacity="0"/>
</linearGradient>
<linearGradient id="paint4_linear_1_22" x1="146.68" y1="16.0364" x2="131.802" y2="52.5417" gradientUnits="userSpaceOnUse">
<stop stop-color="#3A55D2"/>
<stop offset="0.1308" stop-color="#4651D5"/>
<stop offset="0.3649" stop-color="#6548DE"/>
<stop offset="1" stop-color="#FF007A"/>
</linearGradient>
<linearGradient id="paint5_linear_1_22" x1="148.054" y1="20.9775" x2="139.743" y2="47.7221" gradientUnits="userSpaceOnUse">
<stop stop-color="#CAC2FF"/>
<stop offset="1" stop-color="white" stop-opacity="0"/>
</linearGradient>
<linearGradient id="paint6_linear_1_22" x1="148.054" y1="20.9775" x2="139.743" y2="47.7221" gradientUnits="userSpaceOnUse">
<stop stop-color="#CAC2FF"/>
<stop offset="1" stop-color="white" stop-opacity="0"/>
</linearGradient>
<linearGradient id="paint7_linear_1_22" x1="139.518" y1="28.9048" x2="139.518" y2="38.4251" gradientUnits="userSpaceOnUse">
<stop stop-color="white" stop-opacity="0.88"/>
<stop offset="1" stop-color="white" stop-opacity="0.85"/>
</linearGradient>
<linearGradient id="paint8_linear_1_22" x1="139.524" y1="25.7534" x2="139.524" y2="41.5705" gradientUnits="userSpaceOnUse">
<stop stop-color="white"/>
<stop offset="0.0001" stop-color="white"/>
<stop offset="1" stop-color="white" stop-opacity="0.88"/>
</linearGradient>
<linearGradient id="paint9_linear_1_22" x1="32.9147" y1="15.3524" x2="20.3843" y2="55.0475" gradientUnits="userSpaceOnUse">
<stop stop-color="#243FE1"/>
<stop offset="0.1537" stop-color="#2F53E5"/>
<stop offset="0.4688" stop-color="#4C87ED"/>
<stop offset="0.9138" stop-color="#7BDAFB"/>
<stop offset="1" stop-color="#84EAFE"/>
</linearGradient>
<linearGradient id="paint10_linear_1_22" x1="35.7802" y1="21.5188" x2="27.1449" y2="48.7778" gradientUnits="userSpaceOnUse">
<stop stop-color="white"/>
<stop offset="1" stop-color="white" stop-opacity="0"/>
</linearGradient>
<linearGradient id="paint11_linear_1_22" x1="35.7802" y1="21.5188" x2="27.1449" y2="48.7778" gradientUnits="userSpaceOnUse">
<stop stop-color="white"/>
<stop offset="1" stop-color="white" stop-opacity="0"/>
</linearGradient>
<linearGradient id="paint12_linear_1_22" x1="23.1729" y1="29.53" x2="28.5124" y2="33.014" gradientUnits="userSpaceOnUse">
<stop stop-color="white"/>
<stop offset="1" stop-color="white" stop-opacity="0"/>
</linearGradient>
<linearGradient id="paint13_linear_1_22" x1="188.543" y1="51.6759" x2="200.801" y2="15.275" gradientUnits="userSpaceOnUse">
<stop stop-color="#FF927A"/>
<stop offset="1" stop-color="#F00000"/>
</linearGradient>
<linearGradient id="paint14_linear_1_22" x1="189.884" y1="47.1844" x2="199.621" y2="18.2702" gradientUnits="userSpaceOnUse">
<stop stop-color="#FF927A"/>
<stop offset="1" stop-color="#F00000"/>
</linearGradient>
<linearGradient id="paint15_linear_1_22" x1="209.332" y1="23.9429" x2="195.299" y2="46.4061" gradientUnits="userSpaceOnUse">
<stop stop-color="white"/>
<stop offset="1" stop-color="white" stop-opacity="0"/>
</linearGradient>
<linearGradient id="paint16_linear_1_22" x1="189.884" y1="47.1844" x2="199.621" y2="18.2702" gradientUnits="userSpaceOnUse">
<stop stop-color="#FF927A"/>
<stop offset="1" stop-color="#F00000"/>
</linearGradient>
<linearGradient id="paint17_linear_1_22" x1="209.332" y1="23.9429" x2="195.299" y2="46.4061" gradientUnits="userSpaceOnUse">
<stop stop-color="white"/>
<stop offset="1" stop-color="white" stop-opacity="0"/>
</linearGradient>
<linearGradient id="paint18_linear_1_22" x1="189.884" y1="47.1844" x2="199.621" y2="18.2702" gradientUnits="userSpaceOnUse">
<stop stop-color="#FF927A"/>
<stop offset="1" stop-color="#F00000"/>
</linearGradient>
<linearGradient id="paint19_linear_1_22" x1="209.332" y1="23.9429" x2="195.299" y2="46.4061" gradientUnits="userSpaceOnUse">
<stop stop-color="white"/>
<stop offset="1" stop-color="white" stop-opacity="0"/>
</linearGradient>
<linearGradient id="paint20_linear_1_22" x1="196.295" y1="26.6689" x2="196.295" y2="39.6025" gradientUnits="userSpaceOnUse">
<stop stop-color="white"/>
<stop offset="1" stop-color="white" stop-opacity="0.57"/>
</linearGradient>
</defs>
</svg>
