<svg width="167" height="129" viewBox="0 0 167 129" fill="none" xmlns="http://www.w3.org/2000/svg">
<path d="M90.1379 95.0182C90.1198 99.5508 91.058 104.034 92.8881 108.16C94.7183 112.286 97.3972 115.959 100.741 118.925C107.917 125.635 117.348 129.241 127.059 128.987C139.387 128.987 149.121 124.59 156.261 115.795C163.393 107.05 167.204 95.9598 166.992 84.5645C166.992 57.2819 159.689 36.7511 145.085 22.9722C130.48 9.19322 114.314 1.56482 96.5847 0.086952V30.0138C105.519 30.9889 113.977 34.6314 120.909 40.4892C124.477 43.2246 127.415 46.7284 129.519 50.7538C131.622 54.7791 132.838 59.2281 133.082 63.7874C130.137 62.3176 126.898 61.5733 123.624 61.6141C113.034 61.6141 104.806 64.693 98.9387 70.8507C95.9749 74.0752 93.6697 77.8741 92.1584 82.0242C90.647 86.1744 89.9601 90.5922 90.1379 95.0182ZM0.00857544 95.0182C-0.0137329 99.5515 0.922577 104.036 2.75302 108.163C4.58348 112.29 7.26463 115.961 10.612 118.925C17.7879 125.635 27.2185 129.241 36.9297 128.987C49.2298 128.987 58.886 124.59 65.8984 115.795C72.9448 107.009 76.7042 95.9359 76.5018 84.5645C76.5018 57.2819 69.2773 36.7511 54.8284 22.9722C40.3794 9.19322 24.2339 1.53582 6.39186 0V29.9268C15.3065 30.9397 23.7348 34.6124 30.6313 40.4892C34.2255 43.2084 37.191 46.7057 39.3169 50.7324C41.4427 54.7592 42.6768 59.2165 42.9313 63.7874C39.9946 62.3171 36.7624 61.5727 33.4942 61.6141C22.9191 61.6141 14.6908 64.693 8.80945 70.8507C5.8455 74.0742 3.5416 77.8734 2.03369 82.0241C0.525787 86.1749 -0.155594 90.5932 0.0297852 95.0182H0.00857544Z" fill="#F3F5F7" fill-opacity="0.03"/>
</svg>
