<svg width="214" height="167" viewBox="0 0 214 167" fill="none" xmlns="http://www.w3.org/2000/svg">
<g filter="url(#filter0_di_1_13312)">
<path d="M34.9699 69.8768C34.6929 68.029 36.2659 66.4309 38.1181 66.6784L108.763 76.1192C110.249 76.3178 111.316 77.6502 111.185 79.1442L109.81 94.8144C109.67 96.412 108.222 97.5681 106.633 97.3505L39.7543 88.1918C38.5204 88.0228 37.5459 87.0607 37.3613 85.8292L34.9699 69.8768Z" fill="#FF7B01"/>
</g>
<g filter="url(#filter1_di_1_13312)">
<path d="M20.5949 54.3301C20.3179 52.4823 21.8909 50.8842 23.743 51.1318L94.3879 60.5726C95.8743 60.7712 96.9412 62.1036 96.8101 63.5975L95.4352 79.2678C95.295 80.8654 93.8466 82.0214 92.2577 81.8038L25.3792 72.6452C24.1453 72.4762 23.1708 71.5141 22.9862 70.2825L20.5949 54.3301Z" fill="#FFA001"/>
</g>
<g filter="url(#filter2_di_1_13312)">
<path d="M6.60952 34.3515C6.33252 32.5037 7.90551 30.9056 9.7577 31.1531L80.4025 40.5939C81.889 40.7925 82.9559 42.1249 82.8248 43.6189L81.4498 59.2891C81.3096 60.8867 79.8612 62.0428 78.2724 61.8252L11.3939 52.6665C10.1599 52.4975 9.18549 51.5354 9.00087 50.3039L6.60952 34.3515Z" fill="#FECC50"/>
</g>
<g filter="url(#filter3_di_1_13312)">
<path d="M179.03 69.8768C179.307 68.029 177.734 66.4309 175.882 66.6784L105.237 76.1192C103.751 76.3178 102.684 77.6502 102.815 79.1442L104.19 94.8144C104.33 96.412 105.779 97.5681 107.367 97.3505L174.246 88.1918C175.48 88.0228 176.454 87.0607 176.639 85.8292L179.03 69.8768Z" fill="#FF7B01"/>
</g>
<g filter="url(#filter4_di_1_13312)">
<path d="M193.405 54.3301C193.682 52.4823 192.109 50.8842 190.257 51.1318L119.612 60.5726C118.125 60.7712 117.059 62.1036 117.19 63.5975L118.565 79.2678C118.705 80.8654 120.153 82.0214 121.742 81.8038L188.621 72.6452C189.855 72.4762 190.829 71.5141 191.014 70.2825L193.405 54.3301Z" fill="#FFA001"/>
</g>
<g filter="url(#filter5_di_1_13312)">
<path d="M207.39 34.3515C207.667 32.5037 206.094 30.9056 204.242 31.1531L133.597 40.5939C132.111 40.7925 131.044 42.1249 131.175 43.6189L132.55 59.2891C132.69 60.8867 134.139 62.0428 135.728 61.8252L202.606 52.6665C203.84 52.4975 204.814 51.5354 204.999 50.3039L207.39 34.3515Z" fill="#FECC50"/>
</g>
<g filter="url(#filter6_d_1_13312)">
<mask id="mask0_1_13312" style="mask-type:alpha" maskUnits="userSpaceOnUse" x="81" y="12" width="53" height="52">
<path d="M105.689 12.9755C106.784 11.8835 108.556 11.8835 109.651 12.9755L121.209 24.5L132.756 36.013C133.855 37.1095 133.855 38.8905 132.756 39.987L121.209 51.5L109.651 63.0245C108.556 64.1165 106.784 64.1165 105.689 63.0245L94.1305 51.5L82.584 39.987C81.4844 38.8905 81.4844 37.1095 82.584 36.013L94.1305 24.5L105.689 12.9755Z" fill="#C4C4C4"/>
</mask>
<g mask="url(#mask0_1_13312)">
<path d="M107.669 65V11L80.5909 38L107.669 65Z" fill="#FFD0F5"/>
<path d="M107.669 11V65L134.748 38L107.669 11Z" fill="#FF97F1"/>
<path d="M161.827 65L134.748 38L107.669 65H161.827Z" fill="#FFD0F5"/>
<path d="M53.5124 65H107.669L80.5909 38L53.5124 65Z" fill="#FFD0F5"/>
</g>
</g>
<g filter="url(#filter7_d_1_13312)">
<mask id="mask1_1_13312" style="mask-type:alpha" maskUnits="userSpaceOnUse" x="108" y="39" width="53" height="52">
<path d="M159.884 62.9633C160.984 64.0598 160.984 65.8409 159.884 66.9373L148.337 78.4503L136.779 89.9748C135.684 91.0668 133.912 91.0668 132.817 89.9748L121.259 78.4503L109.712 66.9373C108.613 65.8409 108.613 64.0598 109.712 62.9633L121.259 51.4503L132.817 39.9258C133.912 38.8338 135.684 38.8338 136.779 39.9258L148.337 51.4503L159.884 62.9633Z" fill="#C4C4C4"/>
</mask>
<g mask="url(#mask1_1_13312)">
<path d="M107.72 64.9499L161.877 64.95L134.798 37.9499L107.72 64.9499Z" fill="#FFD0F5"/>
<path d="M161.877 64.95L107.72 64.9499L134.798 91.9499L161.877 64.95Z" fill="#FF97F1"/>
<path d="M107.72 118.95L134.798 91.9499L107.72 64.9499L107.72 118.95Z" fill="#FFD0F5"/>
<path d="M107.72 10.9499L107.72 64.9499L134.798 37.9499L107.72 10.9499Z" fill="#FFD0F5"/>
</g>
</g>
<g filter="url(#filter8_d_1_13312)">
<mask id="mask2_1_13312" style="mask-type:alpha" maskUnits="userSpaceOnUse" x="81" y="66" width="53" height="52">
<path d="M109.751 117.025C108.656 118.117 106.883 118.117 105.788 117.025L94.2303 105.5L82.6838 93.9871C81.5841 92.8906 81.5841 91.1095 82.6838 90.0131L94.2303 78.5001L105.788 66.9755C106.883 65.8836 108.656 65.8836 109.751 66.9755L121.309 78.5001L132.855 90.0131C133.955 91.1095 133.955 92.8906 132.855 93.9871L121.309 105.5L109.751 117.025Z" fill="#C4C4C4"/>
</mask>
<g mask="url(#mask2_1_13312)">
<path d="M107.77 65.0001L107.77 119L134.848 92.0001L107.77 65.0001Z" fill="#FFD0F5"/>
<path d="M107.77 119L107.77 65.0001L80.6913 92.0001L107.77 119Z" fill="#FF97F1"/>
<path d="M53.6127 65.0001L80.6913 92.0001L107.77 65.0001L53.6127 65.0001Z" fill="#FFD0F5"/>
<path d="M161.927 65.0001L107.77 65.0001L134.848 92.0001L161.927 65.0001Z" fill="#FFD0F5"/>
</g>
</g>
<g filter="url(#filter9_d_1_13312)">
<mask id="mask3_1_13312" style="mask-type:alpha" maskUnits="userSpaceOnUse" x="54" y="39" width="53" height="52">
<path d="M55.5553 67.0369C54.4557 65.9404 54.4557 64.1593 55.5553 63.0629L67.1018 51.5499L78.6599 40.0254C79.755 38.9334 81.5272 38.9334 82.6224 40.0254L94.1804 51.5499L105.727 63.0629C106.827 64.1593 106.827 65.9404 105.727 67.0369L94.1804 78.5499L82.6223 90.0744C81.5272 91.1663 79.755 91.1663 78.6599 90.0744L67.1018 78.5499L55.5553 67.0369Z" fill="#C4C4C4"/>
</mask>
<g mask="url(#mask3_1_13312)">
<path d="M107.72 65.0501L53.5626 65.0501L80.6411 92.0501L107.72 65.0501Z" fill="#FFD0F5"/>
<path d="M53.5626 65.0501L107.72 65.0501L80.6411 38.0501L53.5626 65.0501Z" fill="#FF97F1"/>
<path d="M107.72 11.0501L80.6411 38.0501L107.72 65.0501L107.72 11.0501Z" fill="#FFD0F5"/>
<path d="M107.72 119.05L107.72 65.0501L80.6411 92.0501L107.72 119.05Z" fill="#FFD0F5"/>
</g>
</g>
<g filter="url(#filter10_d_1_13312)">
<ellipse cx="107.72" cy="65" rx="45.5889" ry="45.4566" fill="url(#paint0_linear_1_13312)"/>
<ellipse cx="107.72" cy="64.9999" rx="43.6893" ry="43.5626" fill="url(#paint1_linear_1_13312)"/>
<ellipse cx="107.72" cy="65.0001" rx="37.041" ry="36.9335" fill="url(#paint2_linear_1_13312)"/>
<g filter="url(#filter11_i_1_13312)">
<ellipse cx="108.141" cy="65.0394" rx="35.1414" ry="35.0395" fill="url(#paint3_radial_1_13312)"/>
<ellipse cx="108.141" cy="65.0394" rx="35.1414" ry="35.0395" fill="url(#paint4_radial_1_13312)"/>
</g>
<path d="M106.892 42.8633C107.288 42.2778 108.151 42.2778 108.547 42.8633L123.163 64.4394C123.392 64.778 123.392 65.2223 123.163 65.561L108.547 87.137C108.151 87.7226 107.288 87.7226 106.892 87.137L92.2765 65.561C92.0471 65.2223 92.0471 64.778 92.2765 64.4394L106.892 42.8633Z" fill="#7B33D1" fill-opacity="0.49"/>
<path d="M107.719 45.5346L94.6886 65.0005H102.135L107.719 56.2408V45.5346Z" fill="url(#paint5_linear_1_13312)"/>
<path d="M120.75 65.0005L107.719 45.5346V56.2408L113.304 65.0005H120.75Z" fill="url(#paint6_linear_1_13312)"/>
<path d="M107.719 84.4665L120.75 65.0005H113.304L107.719 73.7602V84.4665Z" fill="url(#paint7_linear_1_13312)"/>
<path d="M94.6886 65.0005L107.719 84.4665V73.7602L102.135 65.0005H94.6886Z" fill="url(#paint8_linear_1_13312)"/>
<path d="M113.304 65.0005L107.719 56.2408L102.135 65.0005L107.719 73.7602L113.304 65.0005Z" fill="white"/>
</g>
<path d="M61.7939 165V135.84H73.0979V138.864H65.8619V148.512H71.7299V151.392H65.8619V162.084H73.1699V165H61.7939ZM74.6541 165L80.7381 149.736L74.7621 135.84H78.5421L82.9701 146.136L87.0021 135.84H90.7821L84.6621 150.06L91.0701 165H87.2901L82.5381 154.02L78.4341 165H74.6541ZM93.8213 165V135.84H101.057C102.809 135.84 104.201 136.164 105.233 136.812C106.289 137.436 107.057 138.348 107.537 139.548C108.017 140.748 108.257 142.2 108.257 143.904C108.257 145.44 107.981 146.772 107.429 147.9C106.901 149.028 106.109 149.904 105.053 150.528C103.997 151.128 102.677 151.428 101.093 151.428H97.8893V165H93.8213ZM97.8893 148.512H99.7613C100.937 148.512 101.861 148.38 102.533 148.116C103.205 147.852 103.685 147.396 103.973 146.748C104.261 146.076 104.405 145.14 104.405 143.94C104.405 142.548 104.297 141.48 104.081 140.736C103.889 139.992 103.469 139.476 102.821 139.188C102.173 138.9 101.165 138.756 99.7973 138.756H97.8893V148.512ZM111.118 165V135.84H122.422V138.864H115.186V148.512H121.054V151.392H115.186V162.084H122.494V165H111.118ZM125.778 165V135.84H131.646C133.59 135.84 135.198 136.104 136.47 136.632C137.742 137.136 138.678 137.964 139.278 139.116C139.902 140.244 140.214 141.732 140.214 143.58C140.214 144.708 140.094 145.74 139.854 146.676C139.614 147.588 139.23 148.368 138.702 149.016C138.174 149.64 137.478 150.096 136.614 150.384L140.754 165H136.83L133.014 151.32H129.846V165H125.778ZM129.846 148.404H131.394C132.546 148.404 133.482 148.26 134.202 147.972C134.922 147.684 135.45 147.192 135.786 146.496C136.122 145.8 136.29 144.828 136.29 143.58C136.29 141.876 135.978 140.652 135.354 139.908C134.73 139.14 133.494 138.756 131.646 138.756H129.846V148.404ZM147.65 165V138.864H142.718V135.84H156.506V138.864H151.718V165H147.65Z" fill="white"/>
<path d="M61.7939 165H60.391C60.391 165.775 61.0191 166.403 61.7939 166.403V165ZM61.7939 135.84V134.437C61.0191 134.437 60.391 135.065 60.391 135.84H61.7939ZM73.0979 135.84H74.5009C74.5009 135.065 73.8728 134.437 73.0979 134.437V135.84ZM73.0979 138.864V140.267C73.8728 140.267 74.5009 139.639 74.5009 138.864H73.0979ZM65.8619 138.864V137.461C65.0871 137.461 64.459 138.089 64.459 138.864H65.8619ZM65.8619 148.512H64.459C64.459 149.287 65.0871 149.915 65.8619 149.915V148.512ZM71.7299 148.512H73.1329C73.1329 147.737 72.5048 147.109 71.7299 147.109V148.512ZM71.7299 151.392V152.795C72.5048 152.795 73.1329 152.167 73.1329 151.392H71.7299ZM65.8619 151.392V149.989C65.0871 149.989 64.459 150.617 64.459 151.392H65.8619ZM65.8619 162.084H64.459C64.459 162.859 65.0871 163.487 65.8619 163.487V162.084ZM73.1699 162.084H74.5729C74.5729 161.309 73.9448 160.681 73.1699 160.681V162.084ZM73.1699 165V166.403C73.9448 166.403 74.5729 165.775 74.5729 165H73.1699ZM63.1969 165V135.84H60.391V165H63.1969ZM61.7939 137.243H73.0979V134.437H61.7939V137.243ZM71.695 135.84V138.864H74.5009V135.84H71.695ZM73.0979 137.461H65.8619V140.267H73.0979V137.461ZM64.459 138.864V148.512H67.2649V138.864H64.459ZM65.8619 149.915H71.7299V147.109H65.8619V149.915ZM70.327 148.512V151.392H73.1329V148.512H70.327ZM71.7299 149.989H65.8619V152.795H71.7299V149.989ZM64.459 151.392V162.084H67.2649V151.392H64.459ZM65.8619 163.487H73.1699V160.681H65.8619V163.487ZM71.767 162.084V165H74.5729V162.084H71.767ZM73.1699 163.597H61.7939V166.403H73.1699V163.597ZM74.6541 165L73.3508 164.481C73.1786 164.913 73.2318 165.402 73.4928 165.787C73.7539 166.172 74.1889 166.403 74.6541 166.403V165ZM80.7381 149.736L82.0414 150.255C82.1791 149.91 82.174 149.524 82.0269 149.182L80.7381 149.736ZM74.7621 135.84V134.437C74.2902 134.437 73.8499 134.674 73.5903 135.068C73.3308 135.463 73.2868 135.961 73.4732 136.394L74.7621 135.84ZM78.5421 135.84L79.8309 135.286C79.6095 134.771 79.1027 134.437 78.5421 134.437V135.84ZM82.9701 146.136L81.6813 146.69C81.906 147.213 82.4243 147.548 82.9932 147.539C83.5621 147.529 84.069 147.177 84.2765 146.648L82.9701 146.136ZM87.0021 135.84V134.437C86.4247 134.437 85.9063 134.791 85.6957 135.328L87.0021 135.84ZM90.7821 135.84L92.0708 136.395C92.2574 135.961 92.2135 135.463 91.954 135.069C91.6944 134.674 91.2541 134.437 90.7821 134.437V135.84ZM84.6621 150.06L83.3734 149.505C83.2213 149.859 83.221 150.259 83.3727 150.613L84.6621 150.06ZM91.0701 165V166.403C91.5418 166.403 91.9819 166.166 92.2415 165.772C92.5011 165.378 92.5454 164.88 92.3595 164.447L91.0701 165ZM87.2901 165L86.0025 165.557C86.2247 166.071 86.7307 166.403 87.2901 166.403V165ZM82.5381 154.02L83.8257 153.463C83.5983 152.937 83.0747 152.603 82.5025 152.617C81.9303 152.632 81.4243 152.993 81.2239 153.529L82.5381 154.02ZM78.4341 165V166.403C79.0195 166.403 79.5433 166.04 79.7483 165.491L78.4341 165ZM75.9574 165.519L82.0414 150.255L79.4348 149.217L73.3508 164.481L75.9574 165.519ZM82.0269 149.182L76.0509 135.286L73.4732 136.394L79.4492 150.29L82.0269 149.182ZM74.7621 137.243H78.5421V134.437H74.7621V137.243ZM77.2533 136.394L81.6813 146.69L84.2589 145.582L79.8309 135.286L77.2533 136.394ZM84.2765 146.648L88.3085 136.352L85.6957 135.328L81.6637 145.624L84.2765 146.648ZM87.0021 137.243H90.7821V134.437H87.0021V137.243ZM89.4934 135.285L83.3734 149.505L85.9508 150.615L92.0708 136.395L89.4934 135.285ZM83.3727 150.613L89.7807 165.553L92.3595 164.447L85.9515 149.507L83.3727 150.613ZM91.0701 163.597H87.2901V166.403H91.0701V163.597ZM88.5777 164.443L83.8257 153.463L81.2505 154.577L86.0025 165.557L88.5777 164.443ZM81.2239 153.529L77.1199 164.509L79.7483 165.491L83.8523 154.511L81.2239 153.529ZM78.4341 163.597H74.6541V166.403H78.4341V163.597ZM93.8213 165H92.4183C92.4183 165.775 93.0464 166.403 93.8213 166.403V165ZM93.8213 135.84V134.437C93.0464 134.437 92.4183 135.065 92.4183 135.84H93.8213ZM105.233 136.812L104.487 138C104.498 138.007 104.509 138.013 104.52 138.02L105.233 136.812ZM107.537 139.548L108.84 139.027L107.537 139.548ZM107.429 147.9L106.169 147.283C106.166 147.291 106.162 147.298 106.159 147.305L107.429 147.9ZM105.053 150.528L105.746 151.748C105.753 151.744 105.76 151.74 105.767 151.736L105.053 150.528ZM97.8893 151.428V150.025C97.1144 150.025 96.4863 150.653 96.4863 151.428H97.8893ZM97.8893 165V166.403C98.6641 166.403 99.2923 165.775 99.2923 165H97.8893ZM97.8893 148.512H96.4863C96.4863 149.287 97.1144 149.915 97.8893 149.915V148.512ZM102.533 148.116L103.046 149.422L102.533 148.116ZM103.973 146.748L105.255 147.318C105.258 147.312 105.26 147.306 105.263 147.301L103.973 146.748ZM104.081 140.736L102.723 141.087C102.726 141.1 102.73 141.114 102.734 141.127L104.081 140.736ZM102.821 139.188L102.251 140.47V140.47L102.821 139.188ZM97.8893 138.756V137.353C97.1144 137.353 96.4863 137.981 96.4863 138.756H97.8893ZM95.2243 165V135.84H92.4183V165H95.2243ZM93.8213 137.243H101.057V134.437H93.8213V137.243ZM101.057 137.243C102.655 137.243 103.756 137.541 104.487 138L105.979 135.624C104.646 134.787 102.964 134.437 101.057 134.437V137.243ZM104.52 138.02C105.294 138.477 105.863 139.14 106.235 140.069L108.84 139.027C108.251 137.556 107.285 136.395 105.947 135.604L104.52 138.02ZM106.235 140.069C106.631 141.06 106.854 142.325 106.854 143.904H109.66C109.66 142.075 109.404 140.436 108.84 139.027L106.235 140.069ZM106.854 143.904C106.854 145.273 106.609 146.385 106.169 147.283L108.689 148.517C109.354 147.159 109.66 145.607 109.66 143.904H106.854ZM106.159 147.305C105.748 148.182 105.148 148.842 104.34 149.32L105.767 151.736C107.07 150.966 108.054 149.874 108.7 148.495L106.159 147.305ZM104.36 149.308C103.57 149.757 102.506 150.025 101.093 150.025V152.831C102.848 152.831 104.424 152.499 105.746 151.748L104.36 149.308ZM101.093 150.025H97.8893V152.831H101.093V150.025ZM96.4863 151.428V165H99.2923V151.428H96.4863ZM97.8893 163.597H93.8213V166.403H97.8893V163.597ZM97.8893 149.915H99.7613V147.109H97.8893V149.915ZM99.7613 149.915C101.016 149.915 102.14 149.778 103.046 149.422L102.02 146.81C101.582 146.982 100.858 147.109 99.7613 147.109V149.915ZM103.046 149.422C104.054 149.026 104.815 148.309 105.255 147.318L102.691 146.178C102.556 146.483 102.356 146.678 102.02 146.81L103.046 149.422ZM105.263 147.301C105.659 146.377 105.808 145.223 105.808 143.94H103.002C103.002 145.057 102.864 145.775 102.684 146.195L105.263 147.301ZM105.808 143.94C105.808 142.503 105.7 141.279 105.429 140.345L102.734 141.127C102.895 141.681 103.002 142.593 103.002 143.94H105.808ZM105.44 140.385C105.151 139.267 104.466 138.384 103.391 137.906L102.251 140.47C102.472 140.568 102.628 140.717 102.723 141.087L105.44 140.385ZM103.391 137.906C102.465 137.494 101.213 137.353 99.7973 137.353V140.159C101.118 140.159 101.882 140.306 102.251 140.47L103.391 137.906ZM99.7973 137.353H97.8893V140.159H99.7973V137.353ZM96.4863 138.756V148.512H99.2923V138.756H96.4863ZM111.118 165H109.715C109.715 165.775 110.343 166.403 111.118 166.403V165ZM111.118 135.84V134.437C110.343 134.437 109.715 135.065 109.715 135.84H111.118ZM122.422 135.84H123.825C123.825 135.065 123.197 134.437 122.422 134.437V135.84ZM122.422 138.864V140.267C123.197 140.267 123.825 139.639 123.825 138.864H122.422ZM115.186 138.864V137.461C114.411 137.461 113.783 138.089 113.783 138.864H115.186ZM115.186 148.512H113.783C113.783 149.287 114.411 149.915 115.186 149.915V148.512ZM121.054 148.512H122.457C122.457 147.737 121.829 147.109 121.054 147.109V148.512ZM121.054 151.392V152.795C121.829 152.795 122.457 152.167 122.457 151.392H121.054ZM115.186 151.392V149.989C114.411 149.989 113.783 150.617 113.783 151.392H115.186ZM115.186 162.084H113.783C113.783 162.859 114.411 163.487 115.186 163.487V162.084ZM122.494 162.084H123.897C123.897 161.309 123.269 160.681 122.494 160.681V162.084ZM122.494 165V166.403C123.269 166.403 123.897 165.775 123.897 165H122.494ZM112.521 165V135.84H109.715V165H112.521ZM111.118 137.243H122.422V134.437H111.118V137.243ZM121.019 135.84V138.864H123.825V135.84H121.019ZM122.422 137.461H115.186V140.267H122.422V137.461ZM113.783 138.864V148.512H116.589V138.864H113.783ZM115.186 149.915H121.054V147.109H115.186V149.915ZM119.651 148.512V151.392H122.457V148.512H119.651ZM121.054 149.989H115.186V152.795H121.054V149.989ZM113.783 151.392V162.084H116.589V151.392H113.783ZM115.186 163.487H122.494V160.681H115.186V163.487ZM121.091 162.084V165H123.897V162.084H121.091ZM122.494 163.597H111.118V166.403H122.494V163.597ZM125.778 165H124.375C124.375 165.775 125.003 166.403 125.778 166.403V165ZM125.778 135.84V134.437C125.003 134.437 124.375 135.065 124.375 135.84H125.778ZM136.47 136.632L135.932 137.928C135.939 137.931 135.946 137.934 135.954 137.936L136.47 136.632ZM139.278 139.116L138.034 139.764C138.039 139.775 138.045 139.785 138.051 139.795L139.278 139.116ZM139.854 146.676L141.211 147.033L141.213 147.024L139.854 146.676ZM138.702 149.016L139.773 149.922C139.779 149.916 139.784 149.909 139.79 149.902L138.702 149.016ZM136.614 150.384L136.171 149.053C135.459 149.29 135.06 150.045 135.264 150.766L136.614 150.384ZM140.754 165V166.403C141.194 166.403 141.608 166.197 141.873 165.846C142.139 165.495 142.224 165.041 142.104 164.618L140.754 165ZM136.83 165L135.479 165.377C135.648 165.983 136.201 166.403 136.83 166.403V165ZM133.014 151.32L134.366 150.943C134.197 150.337 133.644 149.917 133.014 149.917V151.32ZM129.846 151.32V149.917C129.071 149.917 128.443 150.545 128.443 151.32H129.846ZM129.846 165V166.403C130.621 166.403 131.249 165.775 131.249 165H129.846ZM129.846 148.404H128.443C128.443 149.179 129.071 149.807 129.846 149.807V148.404ZM135.786 146.496L137.05 147.106V147.106L135.786 146.496ZM135.354 139.908L134.265 140.793C134.27 140.798 134.275 140.804 134.279 140.81L135.354 139.908ZM129.846 138.756V137.353C129.071 137.353 128.443 137.981 128.443 138.756H129.846ZM127.181 165V135.84H124.375V165H127.181ZM125.778 137.243H131.646V134.437H125.778V137.243ZM131.646 137.243C133.476 137.243 134.886 137.493 135.932 137.928L137.008 135.336C135.511 134.715 133.705 134.437 131.646 134.437V137.243ZM135.954 137.936C136.93 138.323 137.599 138.928 138.034 139.764L140.523 138.468C139.758 137 138.554 135.949 136.987 135.328L135.954 137.936ZM138.051 139.795C138.521 140.644 138.811 141.873 138.811 143.58H141.617C141.617 141.591 141.284 139.844 140.506 138.437L138.051 139.795ZM138.811 143.58C138.811 144.61 138.702 145.522 138.495 146.328L141.213 147.024C141.487 145.958 141.617 144.806 141.617 143.58H138.811ZM138.498 146.319C138.302 147.062 138.001 147.656 137.615 148.13L139.79 149.902C140.46 149.08 140.927 148.114 141.211 147.033L138.498 146.319ZM137.631 148.11C137.288 148.515 136.819 148.837 136.171 149.053L137.058 151.715C138.137 151.355 139.061 150.765 139.773 149.922L137.631 148.11ZM135.264 150.766L139.404 165.382L142.104 164.618L137.964 150.002L135.264 150.766ZM140.754 163.597H136.83V166.403H140.754V163.597ZM138.182 164.623L134.366 150.943L131.663 151.697L135.479 165.377L138.182 164.623ZM133.014 149.917H129.846V152.723H133.014V149.917ZM128.443 151.32V165H131.249V151.32H128.443ZM129.846 163.597H125.778V166.403H129.846V163.597ZM129.846 149.807H131.394V147.001H129.846V149.807ZM131.394 149.807C132.646 149.807 133.778 149.653 134.723 149.275L133.681 146.669C133.187 146.867 132.446 147.001 131.394 147.001V149.807ZM134.723 149.275C135.767 148.857 136.561 148.119 137.05 147.106L134.523 145.886C134.34 146.265 134.077 146.511 133.681 146.669L134.723 149.275ZM137.05 147.106C137.517 146.138 137.693 144.924 137.693 143.58H134.887C134.887 144.732 134.727 145.462 134.523 145.886L137.05 147.106ZM137.693 143.58C137.693 141.771 137.375 140.134 136.429 139.006L134.279 140.81C134.582 141.17 134.887 141.981 134.887 143.58H137.693ZM136.443 139.023C135.395 137.733 133.577 137.353 131.646 137.353V140.159C133.412 140.159 134.066 140.547 134.265 140.793L136.443 139.023ZM131.646 137.353H129.846V140.159H131.646V137.353ZM128.443 138.756V148.404H131.249V138.756H128.443ZM147.65 165H146.247C146.247 165.775 146.875 166.403 147.65 166.403V165ZM147.65 138.864H149.053C149.053 138.089 148.425 137.461 147.65 137.461V138.864ZM142.718 138.864H141.315C141.315 139.639 141.943 140.267 142.718 140.267V138.864ZM142.718 135.84V134.437C141.943 134.437 141.315 135.065 141.315 135.84H142.718ZM156.506 135.84H157.909C157.909 135.065 157.281 134.437 156.506 134.437V135.84ZM156.506 138.864V140.267C157.281 140.267 157.909 139.639 157.909 138.864H156.506ZM151.718 138.864V137.461C150.943 137.461 150.315 138.089 150.315 138.864H151.718ZM151.718 165V166.403C152.493 166.403 153.121 165.775 153.121 165H151.718ZM149.053 165V138.864H146.247V165H149.053ZM147.65 137.461H142.718V140.267H147.65V137.461ZM144.121 138.864V135.84H141.315V138.864H144.121ZM142.718 137.243H156.506V134.437H142.718V137.243ZM155.103 135.84V138.864H157.909V135.84H155.103ZM156.506 137.461H151.718V140.267H156.506V137.461ZM150.315 138.864V165H153.121V138.864H150.315ZM151.718 163.597H147.65V166.403H151.718V163.597Z" fill="#EC78FF" fill-opacity="0.6"/>
<defs>
<filter id="filter0_di_1_13312" x="29.3262" y="65.25" width="87.4819" height="43.3507" filterUnits="userSpaceOnUse" color-interpolation-filters="sRGB">
<feFlood flood-opacity="0" result="BackgroundImageFix"/>
<feColorMatrix in="SourceAlpha" type="matrix" values="0 0 0 0 0 0 0 0 0 0 0 0 0 0 0 0 0 0 127 0" result="hardAlpha"/>
<feOffset dy="5.61193"/>
<feGaussianBlur stdDeviation="2.80596"/>
<feColorMatrix type="matrix" values="0 0 0 0 0 0 0 0 0 0 0 0 0 0 0 0 0 0 0.08 0"/>
<feBlend mode="normal" in2="BackgroundImageFix" result="effect1_dropShadow_1_13312"/>
<feBlend mode="normal" in="SourceGraphic" in2="effect1_dropShadow_1_13312" result="shape"/>
<feColorMatrix in="SourceAlpha" type="matrix" values="0 0 0 0 0 0 0 0 0 0 0 0 0 0 0 0 0 0 127 0" result="hardAlpha"/>
<feOffset dx="5.61193" dy="-11.2239"/>
<feGaussianBlur stdDeviation="0.701491"/>
<feComposite in2="hardAlpha" operator="arithmetic" k2="-1" k3="1"/>
<feColorMatrix type="matrix" values="0 0 0 0 0 0 0 0 0 0 0 0 0 0 0 0 0 0 0.11 0"/>
<feBlend mode="overlay" in2="shape" result="effect2_innerShadow_1_13312"/>
</filter>
<filter id="filter1_di_1_13312" x="14.9512" y="49.7034" width="87.4818" height="43.3507" filterUnits="userSpaceOnUse" color-interpolation-filters="sRGB">
<feFlood flood-opacity="0" result="BackgroundImageFix"/>
<feColorMatrix in="SourceAlpha" type="matrix" values="0 0 0 0 0 0 0 0 0 0 0 0 0 0 0 0 0 0 127 0" result="hardAlpha"/>
<feOffset dy="5.61193"/>
<feGaussianBlur stdDeviation="2.80596"/>
<feColorMatrix type="matrix" values="0 0 0 0 0 0 0 0 0 0 0 0 0 0 0 0 0 0 0.08 0"/>
<feBlend mode="normal" in2="BackgroundImageFix" result="effect1_dropShadow_1_13312"/>
<feBlend mode="normal" in="SourceGraphic" in2="effect1_dropShadow_1_13312" result="shape"/>
<feColorMatrix in="SourceAlpha" type="matrix" values="0 0 0 0 0 0 0 0 0 0 0 0 0 0 0 0 0 0 127 0" result="hardAlpha"/>
<feOffset dx="5.61193" dy="-11.2239"/>
<feGaussianBlur stdDeviation="0.701491"/>
<feComposite in2="hardAlpha" operator="arithmetic" k2="-1" k3="1"/>
<feColorMatrix type="matrix" values="0 0 0 0 0 0 0 0 0 0 0 0 0 0 0 0 0 0 0.19 0"/>
<feBlend mode="overlay" in2="shape" result="effect2_innerShadow_1_13312"/>
</filter>
<filter id="filter2_di_1_13312" x="0.965831" y="29.7247" width="87.4818" height="43.3507" filterUnits="userSpaceOnUse" color-interpolation-filters="sRGB">
<feFlood flood-opacity="0" result="BackgroundImageFix"/>
<feColorMatrix in="SourceAlpha" type="matrix" values="0 0 0 0 0 0 0 0 0 0 0 0 0 0 0 0 0 0 127 0" result="hardAlpha"/>
<feOffset dy="5.61193"/>
<feGaussianBlur stdDeviation="2.80596"/>
<feColorMatrix type="matrix" values="0 0 0 0 0 0 0 0 0 0 0 0 0 0 0 0 0 0 0.08 0"/>
<feBlend mode="normal" in2="BackgroundImageFix" result="effect1_dropShadow_1_13312"/>
<feBlend mode="normal" in="SourceGraphic" in2="effect1_dropShadow_1_13312" result="shape"/>
<feColorMatrix in="SourceAlpha" type="matrix" values="0 0 0 0 0 0 0 0 0 0 0 0 0 0 0 0 0 0 127 0" result="hardAlpha"/>
<feOffset dx="5.61193" dy="-11.2239"/>
<feGaussianBlur stdDeviation="0.701491"/>
<feComposite in2="hardAlpha" operator="arithmetic" k2="-1" k3="1"/>
<feColorMatrix type="matrix" values="0 0 0 0 0 0 0 0 0 0 0 0 0 0 0 0 0 0 0.42 0"/>
<feBlend mode="overlay" in2="shape" result="effect2_innerShadow_1_13312"/>
</filter>
<filter id="filter3_di_1_13312" x="97.1922" y="65.25" width="87.4819" height="43.3507" filterUnits="userSpaceOnUse" color-interpolation-filters="sRGB">
<feFlood flood-opacity="0" result="BackgroundImageFix"/>
<feColorMatrix in="SourceAlpha" type="matrix" values="0 0 0 0 0 0 0 0 0 0 0 0 0 0 0 0 0 0 127 0" result="hardAlpha"/>
<feOffset dy="5.61193"/>
<feGaussianBlur stdDeviation="2.80596"/>
<feColorMatrix type="matrix" values="0 0 0 0 0 0 0 0 0 0 0 0 0 0 0 0 0 0 0.08 0"/>
<feBlend mode="normal" in2="BackgroundImageFix" result="effect1_dropShadow_1_13312"/>
<feBlend mode="normal" in="SourceGraphic" in2="effect1_dropShadow_1_13312" result="shape"/>
<feColorMatrix in="SourceAlpha" type="matrix" values="0 0 0 0 0 0 0 0 0 0 0 0 0 0 0 0 0 0 127 0" result="hardAlpha"/>
<feOffset dx="-5.61193" dy="-11.2239"/>
<feGaussianBlur stdDeviation="0.701491"/>
<feComposite in2="hardAlpha" operator="arithmetic" k2="-1" k3="1"/>
<feColorMatrix type="matrix" values="0 0 0 0 0 0 0 0 0 0 0 0 0 0 0 0 0 0 0.11 0"/>
<feBlend mode="overlay" in2="shape" result="effect2_innerShadow_1_13312"/>
</filter>
<filter id="filter4_di_1_13312" x="111.567" y="49.7034" width="87.4819" height="43.3507" filterUnits="userSpaceOnUse" color-interpolation-filters="sRGB">
<feFlood flood-opacity="0" result="BackgroundImageFix"/>
<feColorMatrix in="SourceAlpha" type="matrix" values="0 0 0 0 0 0 0 0 0 0 0 0 0 0 0 0 0 0 127 0" result="hardAlpha"/>
<feOffset dy="5.61193"/>
<feGaussianBlur stdDeviation="2.80596"/>
<feColorMatrix type="matrix" values="0 0 0 0 0 0 0 0 0 0 0 0 0 0 0 0 0 0 0.08 0"/>
<feBlend mode="normal" in2="BackgroundImageFix" result="effect1_dropShadow_1_13312"/>
<feBlend mode="normal" in="SourceGraphic" in2="effect1_dropShadow_1_13312" result="shape"/>
<feColorMatrix in="SourceAlpha" type="matrix" values="0 0 0 0 0 0 0 0 0 0 0 0 0 0 0 0 0 0 127 0" result="hardAlpha"/>
<feOffset dx="-5.61193" dy="-11.2239"/>
<feGaussianBlur stdDeviation="0.701491"/>
<feComposite in2="hardAlpha" operator="arithmetic" k2="-1" k3="1"/>
<feColorMatrix type="matrix" values="0 0 0 0 0 0 0 0 0 0 0 0 0 0 0 0 0 0 0.19 0"/>
<feBlend mode="overlay" in2="shape" result="effect2_innerShadow_1_13312"/>
</filter>
<filter id="filter5_di_1_13312" x="125.552" y="29.7247" width="87.4819" height="43.3507" filterUnits="userSpaceOnUse" color-interpolation-filters="sRGB">
<feFlood flood-opacity="0" result="BackgroundImageFix"/>
<feColorMatrix in="SourceAlpha" type="matrix" values="0 0 0 0 0 0 0 0 0 0 0 0 0 0 0 0 0 0 127 0" result="hardAlpha"/>
<feOffset dy="5.61193"/>
<feGaussianBlur stdDeviation="2.80596"/>
<feColorMatrix type="matrix" values="0 0 0 0 0 0 0 0 0 0 0 0 0 0 0 0 0 0 0.08 0"/>
<feBlend mode="normal" in2="BackgroundImageFix" result="effect1_dropShadow_1_13312"/>
<feBlend mode="normal" in="SourceGraphic" in2="effect1_dropShadow_1_13312" result="shape"/>
<feColorMatrix in="SourceAlpha" type="matrix" values="0 0 0 0 0 0 0 0 0 0 0 0 0 0 0 0 0 0 127 0" result="hardAlpha"/>
<feOffset dx="-5.61193" dy="-11.2239"/>
<feGaussianBlur stdDeviation="0.701491"/>
<feComposite in2="hardAlpha" operator="arithmetic" k2="-1" k3="1"/>
<feColorMatrix type="matrix" values="0 0 0 0 0 0 0 0 0 0 0 0 0 0 0 0 0 0 0.42 0"/>
<feBlend mode="overlay" in2="shape" result="effect2_innerShadow_1_13312"/>
</filter>
<filter id="filter6_d_1_13312" x="70.5354" y="0.93267" width="74.2688" height="74.1347" filterUnits="userSpaceOnUse" color-interpolation-filters="sRGB">
<feFlood flood-opacity="0" result="BackgroundImageFix"/>
<feColorMatrix in="SourceAlpha" type="matrix" values="0 0 0 0 0 0 0 0 0 0 0 0 0 0 0 0 0 0 127 0" result="hardAlpha"/>
<feOffset/>
<feGaussianBlur stdDeviation="5.61193"/>
<feColorMatrix type="matrix" values="0 0 0 0 0 0 0 0 0 0 0 0 0 0 0 0 0 0 0.2 0"/>
<feBlend mode="normal" in2="BackgroundImageFix" result="effect1_dropShadow_1_13312"/>
<feBlend mode="normal" in="SourceGraphic" in2="effect1_dropShadow_1_13312" result="shape"/>
</filter>
<filter id="filter7_d_1_13312" x="97.6638" y="27.883" width="74.2688" height="74.1347" filterUnits="userSpaceOnUse" color-interpolation-filters="sRGB">
<feFlood flood-opacity="0" result="BackgroundImageFix"/>
<feColorMatrix in="SourceAlpha" type="matrix" values="0 0 0 0 0 0 0 0 0 0 0 0 0 0 0 0 0 0 127 0" result="hardAlpha"/>
<feOffset/>
<feGaussianBlur stdDeviation="5.61193"/>
<feColorMatrix type="matrix" values="0 0 0 0 0 0 0 0 0 0 0 0 0 0 0 0 0 0 0.2 0"/>
<feBlend mode="normal" in2="BackgroundImageFix" result="effect1_dropShadow_1_13312"/>
<feBlend mode="normal" in="SourceGraphic" in2="effect1_dropShadow_1_13312" result="shape"/>
</filter>
<filter id="filter8_d_1_13312" x="70.6352" y="54.9327" width="74.2688" height="74.1347" filterUnits="userSpaceOnUse" color-interpolation-filters="sRGB">
<feFlood flood-opacity="0" result="BackgroundImageFix"/>
<feColorMatrix in="SourceAlpha" type="matrix" values="0 0 0 0 0 0 0 0 0 0 0 0 0 0 0 0 0 0 127 0" result="hardAlpha"/>
<feOffset/>
<feGaussianBlur stdDeviation="5.61193"/>
<feColorMatrix type="matrix" values="0 0 0 0 0 0 0 0 0 0 0 0 0 0 0 0 0 0 0.2 0"/>
<feBlend mode="normal" in2="BackgroundImageFix" result="effect1_dropShadow_1_13312"/>
<feBlend mode="normal" in="SourceGraphic" in2="effect1_dropShadow_1_13312" result="shape"/>
</filter>
<filter id="filter9_d_1_13312" x="43.5067" y="27.9825" width="74.2688" height="74.1347" filterUnits="userSpaceOnUse" color-interpolation-filters="sRGB">
<feFlood flood-opacity="0" result="BackgroundImageFix"/>
<feColorMatrix in="SourceAlpha" type="matrix" values="0 0 0 0 0 0 0 0 0 0 0 0 0 0 0 0 0 0 127 0" result="hardAlpha"/>
<feOffset/>
<feGaussianBlur stdDeviation="5.61193"/>
<feColorMatrix type="matrix" values="0 0 0 0 0 0 0 0 0 0 0 0 0 0 0 0 0 0 0.2 0"/>
<feBlend mode="normal" in2="BackgroundImageFix" result="effect1_dropShadow_1_13312"/>
<feBlend mode="normal" in="SourceGraphic" in2="effect1_dropShadow_1_13312" result="shape"/>
</filter>
<filter id="filter10_d_1_13312" x="46.1308" y="3.54343" width="123.178" height="122.913" filterUnits="userSpaceOnUse" color-interpolation-filters="sRGB">
<feFlood flood-opacity="0" result="BackgroundImageFix"/>
<feColorMatrix in="SourceAlpha" type="matrix" values="0 0 0 0 0 0 0 0 0 0 0 0 0 0 0 0 0 0 127 0" result="hardAlpha"/>
<feOffset/>
<feGaussianBlur stdDeviation="8"/>
<feColorMatrix type="matrix" values="0 0 0 0 0 0 0 0 0 0 0 0 0 0 0 0 0 0 0.15 0"/>
<feBlend mode="normal" in2="BackgroundImageFix" result="effect1_dropShadow_1_13312"/>
<feBlend mode="normal" in="SourceGraphic" in2="effect1_dropShadow_1_13312" result="shape"/>
</filter>
<filter id="filter11_i_1_13312" x="73" y="30" width="70.2828" height="72.0789" filterUnits="userSpaceOnUse" color-interpolation-filters="sRGB">
<feFlood flood-opacity="0" result="BackgroundImageFix"/>
<feBlend mode="normal" in="SourceGraphic" in2="BackgroundImageFix" result="shape"/>
<feColorMatrix in="SourceAlpha" type="matrix" values="0 0 0 0 0 0 0 0 0 0 0 0 0 0 0 0 0 0 127 0" result="hardAlpha"/>
<feOffset dy="2"/>
<feGaussianBlur stdDeviation="5"/>
<feComposite in2="hardAlpha" operator="arithmetic" k2="-1" k3="1"/>
<feColorMatrix type="matrix" values="0 0 0 0 0 0 0 0 0 0 0 0 0 0 0 0 0 0 0.8 0"/>
<feBlend mode="overlay" in2="shape" result="effect1_innerShadow_1_13312"/>
</filter>
<linearGradient id="paint0_linear_1_13312" x1="107.72" y1="19.5434" x2="107.72" y2="110.457" gradientUnits="userSpaceOnUse">
<stop stop-color="#FFEB3A"/>
<stop offset="1" stop-color="#FA7002"/>
</linearGradient>
<linearGradient id="paint1_linear_1_13312" x1="107.72" y1="21.4373" x2="107.72" y2="108.562" gradientUnits="userSpaceOnUse">
<stop stop-color="#FFDE66"/>
<stop offset="1" stop-color="#FB9811"/>
</linearGradient>
<linearGradient id="paint2_linear_1_13312" x1="107.72" y1="28.0666" x2="107.72" y2="101.934" gradientUnits="userSpaceOnUse">
<stop stop-color="#FFAD31"/>
<stop offset="1" stop-color="#FFD446"/>
</linearGradient>
<radialGradient id="paint3_radial_1_13312" cx="0" cy="0" r="1" gradientUnits="userSpaceOnUse" gradientTransform="translate(97.054 48.4957) rotate(53.4344) scale(52.8548 67.3197)">
<stop stop-color="#ED7CFF"/>
<stop offset="1" stop-color="#6E31E2"/>
</radialGradient>
<radialGradient id="paint4_radial_1_13312" cx="0" cy="0" r="1" gradientUnits="userSpaceOnUse" gradientTransform="translate(93.9496 45.4003) rotate(51.259) scale(8.50413 17.0368)">
<stop stop-color="white" stop-opacity="0.6"/>
<stop offset="1" stop-color="white" stop-opacity="0"/>
</radialGradient>
<linearGradient id="paint5_linear_1_13312" x1="99.2219" y1="57.8764" x2="104.032" y2="61.3695" gradientUnits="userSpaceOnUse">
<stop stop-color="#FFD2F6"/>
<stop offset="1" stop-color="#FFEEFC"/>
</linearGradient>
<linearGradient id="paint6_linear_1_13312" x1="110.447" y1="58.7619" x2="118.435" y2="55.5168" gradientUnits="userSpaceOnUse">
<stop stop-color="#FFC2F1"/>
<stop offset="1" stop-color="#FFCDF4"/>
</linearGradient>
<linearGradient id="paint7_linear_1_13312" x1="109.511" y1="69.3886" x2="113.252" y2="75.7709" gradientUnits="userSpaceOnUse">
<stop stop-color="#FF88EF"/>
<stop offset="1" stop-color="#E962D6"/>
</linearGradient>
<linearGradient id="paint8_linear_1_13312" x1="104.523" y1="67.6174" x2="104.802" y2="78.2449" gradientUnits="userSpaceOnUse">
<stop stop-color="#FFCDF4"/>
<stop offset="1" stop-color="#FF97E8"/>
</linearGradient>
</defs>
</svg>
