<svg width="117" height="79" viewBox="0 0 117 79" fill="none" xmlns="http://www.w3.org/2000/svg">
<g filter="url(#filter0_di_1_13318)">
<path d="M82.0303 39.8768C82.3073 38.029 80.7343 36.4309 78.8821 36.6784L8.2373 46.1192C6.75086 46.3178 5.68396 47.6502 5.81504 49.1442L7.19 64.8144C7.33018 66.412 8.77858 67.5681 10.3675 67.3505L77.246 58.1918C78.4799 58.0228 79.4543 57.0607 79.639 55.8292L82.0303 39.8768Z" fill="#FF7B01"/>
</g>
<g filter="url(#filter1_di_1_13318)">
<path d="M96.4049 24.3301C96.6819 22.4823 95.109 20.8842 93.2568 21.1318L22.6119 30.5726C21.1255 30.7712 20.0586 32.1036 20.1897 33.5975L21.5646 49.2678C21.7048 50.8654 23.1532 52.0214 24.7421 51.8038L91.6206 42.6452C92.8545 42.4762 93.829 41.5141 94.0136 40.2825L96.4049 24.3301Z" fill="#FFA001"/>
</g>
<g filter="url(#filter2_di_1_13318)">
<path d="M110.39 4.35148C110.667 2.50365 109.094 0.905563 107.242 1.15308L36.5974 10.5939C35.111 10.7925 34.0441 12.1249 34.1751 13.6189L35.5501 29.2891C35.6903 30.8867 37.1387 32.0428 38.7276 31.8252L105.606 22.6665C106.84 22.4975 107.814 21.5354 107.999 20.3039L110.39 4.35148Z" fill="#FECC50"/>
</g>
<defs>
<filter id="filter0_di_1_13318" x="0.192211" y="35.25" width="87.4819" height="43.3507" filterUnits="userSpaceOnUse" color-interpolation-filters="sRGB">
<feFlood flood-opacity="0" result="BackgroundImageFix"/>
<feColorMatrix in="SourceAlpha" type="matrix" values="0 0 0 0 0 0 0 0 0 0 0 0 0 0 0 0 0 0 127 0" result="hardAlpha"/>
<feOffset dy="5.61193"/>
<feGaussianBlur stdDeviation="2.80596"/>
<feColorMatrix type="matrix" values="0 0 0 0 0 0 0 0 0 0 0 0 0 0 0 0 0 0 0.08 0"/>
<feBlend mode="normal" in2="BackgroundImageFix" result="effect1_dropShadow_1_13318"/>
<feBlend mode="normal" in="SourceGraphic" in2="effect1_dropShadow_1_13318" result="shape"/>
<feColorMatrix in="SourceAlpha" type="matrix" values="0 0 0 0 0 0 0 0 0 0 0 0 0 0 0 0 0 0 127 0" result="hardAlpha"/>
<feOffset dx="-5.61193" dy="-11.2239"/>
<feGaussianBlur stdDeviation="0.701491"/>
<feComposite in2="hardAlpha" operator="arithmetic" k2="-1" k3="1"/>
<feColorMatrix type="matrix" values="0 0 0 0 0 0 0 0 0 0 0 0 0 0 0 0 0 0 0.11 0"/>
<feBlend mode="overlay" in2="shape" result="effect2_innerShadow_1_13318"/>
</filter>
<filter id="filter1_di_1_13318" x="14.5668" y="19.7034" width="87.4819" height="43.3507" filterUnits="userSpaceOnUse" color-interpolation-filters="sRGB">
<feFlood flood-opacity="0" result="BackgroundImageFix"/>
<feColorMatrix in="SourceAlpha" type="matrix" values="0 0 0 0 0 0 0 0 0 0 0 0 0 0 0 0 0 0 127 0" result="hardAlpha"/>
<feOffset dy="5.61193"/>
<feGaussianBlur stdDeviation="2.80596"/>
<feColorMatrix type="matrix" values="0 0 0 0 0 0 0 0 0 0 0 0 0 0 0 0 0 0 0.08 0"/>
<feBlend mode="normal" in2="BackgroundImageFix" result="effect1_dropShadow_1_13318"/>
<feBlend mode="normal" in="SourceGraphic" in2="effect1_dropShadow_1_13318" result="shape"/>
<feColorMatrix in="SourceAlpha" type="matrix" values="0 0 0 0 0 0 0 0 0 0 0 0 0 0 0 0 0 0 127 0" result="hardAlpha"/>
<feOffset dx="-5.61193" dy="-11.2239"/>
<feGaussianBlur stdDeviation="0.701491"/>
<feComposite in2="hardAlpha" operator="arithmetic" k2="-1" k3="1"/>
<feColorMatrix type="matrix" values="0 0 0 0 0 0 0 0 0 0 0 0 0 0 0 0 0 0 0.19 0"/>
<feBlend mode="overlay" in2="shape" result="effect2_innerShadow_1_13318"/>
</filter>
<filter id="filter2_di_1_13318" x="28.5523" y="-0.275296" width="87.4819" height="43.3507" filterUnits="userSpaceOnUse" color-interpolation-filters="sRGB">
<feFlood flood-opacity="0" result="BackgroundImageFix"/>
<feColorMatrix in="SourceAlpha" type="matrix" values="0 0 0 0 0 0 0 0 0 0 0 0 0 0 0 0 0 0 127 0" result="hardAlpha"/>
<feOffset dy="5.61193"/>
<feGaussianBlur stdDeviation="2.80596"/>
<feColorMatrix type="matrix" values="0 0 0 0 0 0 0 0 0 0 0 0 0 0 0 0 0 0 0.08 0"/>
<feBlend mode="normal" in2="BackgroundImageFix" result="effect1_dropShadow_1_13318"/>
<feBlend mode="normal" in="SourceGraphic" in2="effect1_dropShadow_1_13318" result="shape"/>
<feColorMatrix in="SourceAlpha" type="matrix" values="0 0 0 0 0 0 0 0 0 0 0 0 0 0 0 0 0 0 127 0" result="hardAlpha"/>
<feOffset dx="-5.61193" dy="-11.2239"/>
<feGaussianBlur stdDeviation="0.701491"/>
<feComposite in2="hardAlpha" operator="arithmetic" k2="-1" k3="1"/>
<feColorMatrix type="matrix" values="0 0 0 0 0 0 0 0 0 0 0 0 0 0 0 0 0 0 0.42 0"/>
<feBlend mode="overlay" in2="shape" result="effect2_innerShadow_1_13318"/>
</filter>
</defs>
</svg>
