<svg width="26" height="26" viewBox="0 0 26 26" fill="none" xmlns="http://www.w3.org/2000/svg">
<path d="M26 0.812479C26 0.359098 25.6409 0 25.1875 0H17.8872C17.4257 0 17.082 0.364028 17.0812 0.825514C17.0812 1.28619 17.4257 1.62503 17.8872 1.62503H24.375L24.3619 8.1437C24.3619 8.60519 24.7129 8.95618 25.1744 8.95618C25.6359 8.95537 25.9869 8.60519 25.9869 8.1437L25.9999 0.824703C25.9999 0.822272 25.9991 0.820651 25.9991 0.81903C25.9992 0.816531 26 0.81491 26 0.812479Z" fill="white"/>
<path d="M8.13803 0H0.83767C0.835239 0 0.833618 0.000810453 0.831187 0.000810453C0.829566 0.000810453 0.827135 0 0.825514 0C0.372133 0 0.0129672 0.359098 0.0129672 0.812479L0 8.13147C0 8.59296 0.364028 8.93747 0.825514 8.93747C1.28619 8.93747 1.62503 8.59296 1.62503 8.13147L1.63799 1.62496H8.13796C8.59944 1.62496 8.95044 1.27396 8.95044 0.812479C8.94969 0.350994 8.5987 0 8.13803 0Z" fill="white"/>
<path d="M8.11283 24.3749H1.62503V17.875C1.62503 17.4135 1.27403 17.0625 0.812546 17.0625C0.351061 17.0625 0 17.4134 0 17.875V25.1753C0 25.1777 0.000810453 25.1793 0.000810453 25.1809C0.000810453 25.1834 0 25.185 0 25.1874C0 25.6408 0.359098 25.9999 0.812479 25.9999H8.11277C8.57425 25.9999 8.91795 25.6359 8.91876 25.1744C8.91883 24.7138 8.57432 24.3749 8.11283 24.3749Z" fill="white"/>
<path d="M25.1745 17.0811C24.713 17.0811 24.3741 17.4256 24.3749 17.887V24.3749H17.875C17.4135 24.3749 17.0625 24.7259 17.0625 25.1873C17.0625 25.6488 17.4135 25.9998 17.875 25.9998H25.1753C25.1777 25.9998 25.1793 25.999 25.1809 25.999C25.1834 25.9982 25.185 25.9998 25.1874 25.9998C25.6408 25.9998 25.9999 25.6407 25.9999 25.1873V17.887C26 17.4256 25.6359 17.0811 25.1745 17.0811Z" fill="white"/>
</svg>
